<svg id="Layer_1" data-name="Layer 1" xmlns="http://www.w3.org/2000/svg" viewBox="0 0 24 24"><defs><style>.cls-1{fill:#367dbf;}.cls-2{fill:#5dc2ef;}</style></defs><title>Artboard 14</title><path class="cls-1" d="M23.5,13h-4a.5.5,0,0,1-.5-.5V9H15.5a.5.5,0,0,1-.5-.5V.5a.5.5,0,0,1,.5-.5h4a.5.5,0,0,1,.5.5V4h3.5a.5.5,0,0,1,.5.5v8A.5.5,0,0,1,23.5,13ZM20,12h3V5H19.5a.5.5,0,0,1-.5-.5V1H16V8h3.5a.5.5,0,0,1,.5.5Z"/><path class="cls-2" d="M20.5,19H17V15.5a.5.5,0,0,0-.5-.5H13V7.5a.5.5,0,0,0-.5-.5H5V3.5A.5.5,0,0,0,4.5,3H.5a.5.5,0,0,0-.5.5v20a.5.5,0,0,0,.5.5h20a.5.5,0,0,0,.5-.5v-4A.5.5,0,0,0,20.5,19Zm-12-4H1V12H12v7H9V15.5A.5.5,0,0,0,8.5,15ZM1,4H4V7.5a.5.5,0,0,0,.5.5H12v3H1ZM1,16H8v7H1Zm19,7H9V20h3.5a.5.5,0,0,0,.5-.5V16h3v3.5a.5.5,0,0,0,.5.5H20Z"/></svg>