<svg id="Layer_1" data-name="Layer 1" xmlns="http://www.w3.org/2000/svg" viewBox="0 0 24 24"><defs><style>.cls-1{fill:#5dc2ef;}</style></defs><title>Artboard 31</title><path class="cls-1" d="M21,17.16l3-9a.48.48,0,0,0-.06-.45.52.52,0,0,0-.41-.21H5.81L4.49,1.89A.51.51,0,0,0,4,1.5H.5a.5.5,0,0,0,0,1H3.6L7.39,18.6a2,2,0,1,0,2.33.9h7.56a2,2,0,1,0,1.72-1H8.4l-.24-1H20.5A.49.49,0,0,0,21,17.16ZM9,20.5a1,1,0,1,1-1-1A1,1,0,0,1,9,20.5Zm11,0a1,1,0,1,1-1-1A1,1,0,0,1,20,20.5Zm-12.07-4L6,8.5H22.81l-2.67,8Z"/></svg>