<svg id="Layer_1" data-name="Layer 1" xmlns="http://www.w3.org/2000/svg" viewBox="0 0 24 24"><defs><style>.cls-1{fill:#5dc2ef;}.cls-2{fill:#367dbf;}</style></defs><title>Artboard 16</title><path class="cls-1" d="M23.5,22.75H23V8.25a.5.5,0,0,0-.5-.5h-3a.5.5,0,0,0-.5.5v14.5H17V12.25a.5.5,0,0,0-.5-.5h-3a.5.5,0,0,0-.5.5v10.5H11v-6.5a.5.5,0,0,0-.5-.5h-3a.5.5,0,0,0-.5.5v6.5H5v-2.5a.5.5,0,0,0-.5-.5h-3a.5.5,0,0,0-.5.5v2.5H.5a.5.5,0,0,0,0,1h23a.5.5,0,0,0,0-1ZM2,22.75v-2H4v2Zm6,0v-6h2v6Zm6,0v-10h2v10Zm6,0v-14h2v14Z"/><path class="cls-2" d="M21.49,1.21a.34.34,0,0,0,0-.1.26.26,0,0,0,0-.1.64.64,0,0,1,0-.07h0a0,0,0,0,0,0,0s0,0-.06-.05L21.26.8l-.08,0-.1,0h0l-4-.47a.51.51,0,0,0-.56.44.51.51,0,0,0,.44.56l2.65.31L2.72,12.81a.5.5,0,0,0-.14.69.52.52,0,0,0,.42.22.57.57,0,0,0,.28-.08L20.37,2.24l-.37,3a.51.51,0,0,0,.44.56h.06a.51.51,0,0,0,.5-.44l.5-4S21.49,1.24,21.49,1.21Z"/></svg>