<svg id="Layer_1" data-name="Layer 1" xmlns="http://www.w3.org/2000/svg" viewBox="0 0 24 24"><defs><style>.cls-1{fill:#367dbf;}.cls-2{fill:#5dc2ef;}</style></defs><title>Artboard 15</title><path class="cls-1" d="M4,6.5a1,1,0,1,1,1-1A1,1,0,0,1,4,6.5Zm0-1Z"/><path class="cls-1" d="M7,6.5a1,1,0,1,1,1-1A1,1,0,0,1,7,6.5Zm0-1Z"/><path class="cls-1" d="M10,6.5a1,1,0,1,1,1-1A1,1,0,0,1,10,6.5Zm0-1Z"/><path class="cls-1" d="M5.5,11.5h-1a.5.5,0,0,1,0-1h1a.5.5,0,0,1,0,1Z"/><path class="cls-1" d="M5.5,14.5h-1a.5.5,0,0,1,0-1h1a.5.5,0,0,1,0,1Z"/><path class="cls-2" d="M21.5,2.5H2.5A2.5,2.5,0,0,0,0,5V19a2.5,2.5,0,0,0,2.5,2.5h19A2.5,2.5,0,0,0,24,19V5A2.5,2.5,0,0,0,21.5,2.5Zm-19,1h19A1.5,1.5,0,0,1,23,5V7.5H1V5A1.5,1.5,0,0,1,2.5,3.5Zm19,17H2.5A1.5,1.5,0,0,1,1,19V8.5H23V19A1.5,1.5,0,0,1,21.5,20.5Z"/><path class="cls-2" d="M18.5,10.5H8.5a.5.5,0,0,0,0,1h10a.5.5,0,0,0,0-1Z"/><path class="cls-2" d="M18.5,13.5H8.5a.5.5,0,0,0,0,1h10a.5.5,0,0,0,0-1Z"/><path class="cls-2" d="M18.5,16.5H8.5a.5.5,0,0,0,0,1h10a.5.5,0,0,0,0-1Z"/><path class="cls-1" d="M5.5,17.5h-1a.5.5,0,0,1,0-1h1a.5.5,0,0,1,0,1Z"/></svg>