<svg id="Layer_1" data-name="Layer 1" xmlns="http://www.w3.org/2000/svg" viewBox="0 0 24 24"><defs><style>.cls-1{fill:#367dbf;}.cls-2{fill:#5dc2ef;}</style></defs><title>Artboard 18</title><path class="cls-1" d="M16.5,8a.49.49,0,0,1-.3-.1,7,7,0,0,0-4.67-1.38A.52.52,0,0,1,11,6.05a.5.5,0,0,1,.47-.53A8,8,0,0,1,16.8,7.1a.5.5,0,0,1,.1.7A.51.51,0,0,1,16.5,8Z"/><path class="cls-1" d="M6,11a1,1,0,1,1,1-1A1,1,0,0,1,6,11Zm0-1Z"/><path class="cls-2" d="M24,9.5a.5.5,0,0,0-1,0,1.51,1.51,0,0,1-1,1.42C21.61,6.5,17.28,3,12,3a11.29,11.29,0,0,0-2.22.22A4,4,0,0,0,4.5,2a.5.5,0,0,0-.25.43.47.47,0,0,0,.25.43A3.06,3.06,0,0,1,5.91,4.77,8.4,8.4,0,0,0,2.16,10H.5a.5.5,0,0,0-.5.5v4a.5.5,0,0,0,.5.5H2.89A9.2,9.2,0,0,0,7,18.85V22a.5.5,0,0,0,1,0V19.28A11.49,11.49,0,0,0,12,20a11.64,11.64,0,0,0,4-.71V22a.5.5,0,0,0,1,0V18.85A8.44,8.44,0,0,0,22,12,2.49,2.49,0,0,0,24,9.5ZM12,19a9.09,9.09,0,0,1-8.35-4.72A.51.51,0,0,0,3.2,14H1V11H2.57a.51.51,0,0,0,.5-.43A7.38,7.38,0,0,1,6.72,5.44.51.51,0,0,0,7,4.94,4,4,0,0,0,5.75,2.6,3,3,0,0,1,9.11,4a.5.5,0,0,0,.55.24A10.44,10.44,0,0,1,12,4c5,0,9,3.36,9,7.5S17,19,12,19Z"/></svg>