<svg xmlns="http://www.w3.org/2000/svg" viewBox="0 0 251.67 41.69"><defs><style>.cls-1{fill:#254a99;}</style></defs><title>Asset 1</title><g id="Layer_2" data-name="Layer 2"><g id="Layer_1-2" data-name="Layer 1"><path class="cls-1" d="M90.25,3.21h.25a2.2,2.2,0,0,1,2.19,2.2V25.5l8.45-9a2.22,2.22,0,0,1,1.6-.69h0a2.2,2.2,0,0,1,1.61,3.7L98.3,26,105,34.28a2.2,2.2,0,0,1-1.71,3.58h-.09a2.22,2.22,0,0,1-1.71-.81L92.69,26.22v9.44a2.19,2.19,0,0,1-2.19,2.2h-.25a2.19,2.19,0,0,1-2.2-2.2V5.41A2.2,2.2,0,0,1,90.25,3.21Z"/><path class="cls-1" d="M113.21,15.84h.05a2.3,2.3,0,0,1,2.3,2.29V28.25q0,5.74,5,5.74a4.42,4.42,0,0,0,3.55-1.53,6.26,6.26,0,0,0,1.31-4.21V18.13a2.3,2.3,0,0,1,2.3-2.29h0a2.29,2.29,0,0,1,2.29,2.29V29a9.16,9.16,0,0,1-2.69,6.81,9.39,9.39,0,0,1-6.89,2.67,9.28,9.28,0,0,1-6.91-2.67,9.46,9.46,0,0,1-2.65-7V18.13A2.3,2.3,0,0,1,113.21,15.84Z"/><path class="cls-1" d="M135.78,35.57V18.13a2.3,2.3,0,0,1,2.29-2.29h0a2.3,2.3,0,0,1,2.3,2.29v1.1a13.46,13.46,0,0,1,3.11-3,6.12,6.12,0,0,1,3.4-1,6.32,6.32,0,0,1,3.94,1.1,8.23,8.23,0,0,1,2.42,3.5,14.17,14.17,0,0,1,3.36-3.5,6.57,6.57,0,0,1,3.76-1.1,6.07,6.07,0,0,1,4.53,2,6.44,6.44,0,0,1,1.91,4.65V35.57a2.3,2.3,0,0,1-2.3,2.29h-.05a2.3,2.3,0,0,1-2.3-2.29V23.05q0-3.66-3.61-3.66a4.27,4.27,0,0,0-3.5,1.87,7.38,7.38,0,0,0-1.43,4.62v9.69a2.3,2.3,0,0,1-2.3,2.29h-.05A2.29,2.29,0,0,1,149,35.57V23.66c0-2.88-1.19-4.32-3.55-4.32a4.48,4.48,0,0,0-3.58,1.76,6.54,6.54,0,0,0-1.47,4.35V35.57a2.3,2.3,0,0,1-2.3,2.29h0A2.3,2.3,0,0,1,135.78,35.57Z"/><path class="cls-1" d="M174.71,15.84h0a2.3,2.3,0,0,1,2.3,2.29V28.25q0,5.74,5.05,5.74a4.45,4.45,0,0,0,3.55-1.53,6.31,6.31,0,0,0,1.3-4.21V18.13a2.3,2.3,0,0,1,2.3-2.29h0a2.3,2.3,0,0,1,2.3,2.29V29a9.17,9.17,0,0,1-2.7,6.81,10.25,10.25,0,0,1-13.8,0,9.5,9.5,0,0,1-2.64-7V18.13A2.29,2.29,0,0,1,174.71,15.84Z"/><path class="cls-1" d="M199.58,3.21h0a2.32,2.32,0,0,1,2.32,2.32v30a2.32,2.32,0,0,1-2.32,2.32h0a2.32,2.32,0,0,1-2.32-2.32v-30A2.32,2.32,0,0,1,199.58,3.21Z"/><path class="cls-1" d="M210.64,15.84h.05a2.3,2.3,0,0,1,2.3,2.29V28.25Q213,34,218,34a4.45,4.45,0,0,0,3.55-1.53,6.31,6.31,0,0,0,1.3-4.21V18.13a2.3,2.3,0,0,1,2.3-2.29h0a2.3,2.3,0,0,1,2.3,2.29V29a9.17,9.17,0,0,1-2.7,6.81,10.25,10.25,0,0,1-13.8,0,9.5,9.5,0,0,1-2.64-7V18.13A2.29,2.29,0,0,1,210.64,15.84Z"/><path class="cls-1" d="M233,15.84H249.1A1.35,1.35,0,0,1,250.19,18L238.51,33.8h11.15a2,2,0,0,1,2,2h0a2,2,0,0,1-2,2H233.39a1.35,1.35,0,0,1-1.08-2.16l11.81-15.83H233a2,2,0,0,1-2-2h0A2,2,0,0,1,233,15.84Z"/><path class="cls-1" d="M65.07,19C62.63,15,58.45,12.57,53.2,12.25a10.55,10.55,0,0,0-4.92-5.93,11.58,11.58,0,0,0-8.23-1.05,16,16,0,0,0-9.39-5A20.31,20.31,0,0,0,19.08,1.86c-7,3.19-11,9.38-10.46,16.15A11.79,11.79,0,0,0,0,30.15C.3,35.57,4.1,41.27,10.8,41.67l10.71,0h2.08a2.23,2.23,0,0,0,2.24-2.23V30.89l8.17,10a2.06,2.06,0,0,0,1.58.75h.09a2,2,0,0,0,1.58-3.33L31,30.69l5.61-6a2,2,0,0,0-1.49-3.43h0a2,2,0,0,0-1.48.64l-7.84,8.33V13.49a2,2,0,0,0-2-2h-.24a2,2,0,0,0-2,2V37.36H11c-4.13-.28-6.48-3.94-6.66-7.43-.18-3.33,1.58-7.22,7.05-8.12h0a2.16,2.16,0,0,0,1.76-2.58h0C11.76,12.53,16.22,7.9,20.86,5.8c5.3-2.39,12.53-2.31,16.73,3.27h0a2.17,2.17,0,0,0,2.53.71h0a7.33,7.33,0,0,1,6.08.33,6.51,6.51,0,0,1,3.21,4.68h0a2.17,2.17,0,0,0,2.17,1.76h0c5.68-.13,8.45,2.49,9.78,4.71a11.44,11.44,0,0,1,0,11.18,9.69,9.69,0,0,1-8.84,4.92H43a2.26,2.26,0,0,0-2.28,1.94,2.17,2.17,0,0,0,2.16,2.39h9.64a14,14,0,0,0,12.6-7.11A15.66,15.66,0,0,0,65.07,19Z"/></g></g></svg>