<svg id="Layer_1" data-name="Layer 1" xmlns="http://www.w3.org/2000/svg" viewBox="0 0 1080.23 511.79"><defs><style>.cls-1{fill:#5dc2ef;}.cls-2{fill:#2b2b6f;}.cls-3{fill:#367dbf;}.cls-4{fill:#c279c4;}.cls-5{fill:#845285;}.cls-6{fill:#a969aa;}.cls-7{fill:#eed77f;}.cls-8{fill:#c8af4e;}.cls-9{fill:#eed25d;}.cls-10{fill:#90e9da;}.cls-11{fill:#7ecbbf;}.cls-12{fill:#66a69a;}.cls-13{fill:#9ddb53;}.cls-14{fill:#6b9538;}.cls-15{fill:#8bc34a;}.cls-16{fill:#fff;}</style></defs><title>Artboard 43</title><g id="Layer_1_copy_2" data-name="Layer 1 copy 2"><path class="cls-1" d="M536.54,0,475.87,35.15,536.54,70.3,597.2,35.15Z"/><path class="cls-2" d="M476.22,34.86l-.28,23.72L516.2,81.82l.07,23.3,20.52-11.73,0-23.59Z"/><path class="cls-3" d="M596.86,34.86,536.34,69.8l-.05,23.59,20.52,11.73.07-23.3,40.26-23.24Z"/><path class="cls-1" d="M456,46.48,395.37,81.63,456,116.77,516.7,81.63Z"/><path class="cls-1" d="M617,46.48,556.37,81.63,617,116.77,677.7,81.63Z"/><path class="cls-2" d="M395.72,81.34l-.27,23.71,40.24,23.24.08,23.3,20.52-11.72-.05-23.6Z"/><path class="cls-3" d="M516.36,81.34l-60.52,34.93,0,23.6,20.52,11.72.08-23.3,40.24-23.24Z"/><path class="cls-2" d="M556.72,81.34l-.28,23.71,40.26,23.24.07,23.3,20.52-11.72,0-23.6Z"/><path class="cls-3" d="M677.36,81.34l-60.52,34.93-.05,23.6,20.52,11.72.07-23.3,40.26-23.24Z"/><path class="cls-4" d="M375.54,93l-60.67,35.16,60.67,35.14,60.67-35.14Z"/><path class="cls-1" d="M536.54,93l-60.67,35.16,60.67,35.14,60.66-35.14Z"/><path class="cls-1" d="M697.54,93l-60.66,35.16,60.66,35.14,60.67-35.14Z"/><path class="cls-5" d="M315,127.85,314.91,198l60.77,35,.11-70.11Z"/><path class="cls-6" d="M435.86,127.82l-60.58,35,0,70,20.68-11.62,0-46.42,40.21-23.2Z"/><path class="cls-2" d="M476.22,127.82l-.28,23.72,40.26,23.23.07,23.3,20.52-11.72,0-23.6Z"/><path class="cls-3" d="M596.86,127.82l-60.52,34.93-.05,23.6,20.52,11.72.07-23.3,40.26-23.24Z"/><path class="cls-2" d="M637.22,127.82l-.28,23.72,40.23,23.19,0,46.42,20.67,11.62,0-70Z"/><path class="cls-3" d="M758.06,127.85l-60.78,35,.11,70.11,60.77-35Z"/><path class="cls-1" d="M456,139.44l-60.66,35.14L456,209.73l60.67-35.15Z"/><path class="cls-7" d="M617,139.44l-60.67,35.14L617,209.73l60.66-35.15Z"/><path class="cls-2" d="M395.52,174.33l-.11,70.11,60.77,35,.11-70.11Z"/><path class="cls-3" d="M516.36,174.3l-60.57,35,0,70,20.67-11.62,0-46.43L516.63,198Z"/><path class="cls-8" d="M556.72,174.3,556.44,198l40.22,23.19,0,46.43,20.67,11.62,0-70Z"/><path class="cls-9" d="M677.56,174.33l-60.77,35,.1,70.11,60.78-35Z"/><path class="cls-1" d="M536.54,185.91l-60.67,35.15,60.67,35.14,60.66-35.14Z"/><path class="cls-1" d="M335.34,209.15l-20.4,12.1,60.52,34.95,20.46-11.76-.11-23.64-20.22,11.59Z"/><path class="cls-10" d="M737.73,209.15l-40.25,23.24L677.27,220.8l-.1,23.64,20.45,11.76,60.51-34.95Z"/><path class="cls-2" d="M315,220.8l-.11,70.12,60.77,35,.11-70.11Z"/><path class="cls-2" d="M476,220.8l-.11,70.12,60.78,35,.1-70.11Z"/><path class="cls-3" d="M597.06,220.8l-60.77,35,.11,70.11,60.77-35Z"/><path class="cls-11" d="M758.06,220.8l-60.78,35,.11,70.11,60.77-35Z"/><path class="cls-3" d="M395.66,244l-20.41,11.85v69.88l20.68-11.63V267.63l20.14-11.72Z"/><path class="cls-12" d="M677.41,244,657,255.91l20.14,11.72V314.1l20.67,11.63V255.84Z"/><path class="cls-13" d="M415.84,255.63l-20.39,12.09L456,302.67l20.45-11.76-.1-23.63-20.22,11.59Z"/><path class="cls-1" d="M657.23,255.63,617,278.87l-20.21-11.59-.11,23.64,20.46,11.75,60.52-34.95Z"/><path class="cls-14" d="M395.52,267.28l-.11,70.12,60.77,35,.11-70.12Z"/><path class="cls-3" d="M677.56,267.28l-60.77,35,.1,70.12,60.78-35Z"/><path class="cls-15" d="M476.16,290.48l-20.4,11.84V372.2l20.67-11.62V314.1l20.14-11.71Z"/><path class="cls-2" d="M596.91,290.48,576.5,302.39l20.14,11.71v46.48l20.67,11.62V302.32Z"/><path class="cls-1" d="M335.34,302.11l-20.4,12.09,60.52,34.95,20.46-11.75-.11-23.64-20.22,11.58Z"/><path class="cls-1" d="M496.35,302.11,475.94,314.2l60.6,35,60.59-35-20.39-12.09-40.2,23.23Z"/><path class="cls-1" d="M737.73,302.11l-40.25,23.23-20.21-11.58-.1,23.64,20.45,11.75,60.51-34.95Z"/><path class="cls-2" d="M315,313.76l-.11,70.11,60.77,35,.11-70.12Z"/><path class="cls-2" d="M476,313.76l-.11,70.11,60.78,35,.1-70.12Z"/><path class="cls-3" d="M597.06,313.76l-60.77,35,.11,70.12,60.77-35Z"/><path class="cls-3" d="M758.06,313.76l-60.78,35,.11,70.12,60.77-35Z"/><path class="cls-3" d="M395.66,337,375.25,348.8v69.88l20.68-11.62V360.58l20.14-11.71Z"/><path class="cls-2" d="M677.41,337,657,348.87l20.14,11.71v46.48l20.67,11.62V348.8Z"/><path class="cls-1" d="M415.84,348.58l-20.39,12.1L456,395.63l20.45-11.76-.1-23.64-20.22,11.59Z"/><path class="cls-1" d="M657.23,348.58,617,371.82l-20.21-11.58-.11,23.63,20.46,11.76,60.52-34.95Z"/><path class="cls-2" d="M395.52,360.23l-.11,70.12,60.77,35,.11-70.11Z"/><path class="cls-3" d="M677.56,360.23l-60.77,35,.1,70.11,60.78-35Z"/><path class="cls-3" d="M476.16,383.43l-20.4,11.85v69.87l20.67-11.62V407.06l20.14-11.72Z"/><path class="cls-2" d="M596.91,383.43,576.5,395.34l20.14,11.72v46.47l20.67,11.62V395.28Z"/><path class="cls-1" d="M496.35,395.06l-20.41,12.09,60.6,35,60.59-35-20.39-12.09-40.2,23.23Z"/><path class="cls-2" d="M476,406.71l-.11,70.12,60.78,35,.1-70.12Z"/><path class="cls-3" d="M597.06,406.71l-60.77,35,.11,70.12,60.77-35Z"/></g><path class="cls-16" d="M934.91,132.44l-2.83-2.83L790.26,271.43H738.89a7.81,7.81,0,1,0,0,4h53Z"/><path class="cls-16" d="M421.88,308.05a7.81,7.81,0,0,0-7.54,5.79H296L154.15,172l-2.83,2.83,143,143h120a7.81,7.81,0,1,0,7.55-9.79Z"/><path class="cls-16" d="M380.38,120.27h0a7.79,7.79,0,0,0-9.46-1.22l-58.7-58.7H110v4H310.56l57.54,57.53a7.81,7.81,0,1,0,14.57,3.91A7.72,7.72,0,0,0,380.38,120.27Z"/><path class="cls-16" d="M763.51,29.36A7.77,7.77,0,0,0,758,31.64L622.85,166.78a7.79,7.79,0,0,0-9.46,1.22h0a7.83,7.83,0,1,0,12.28,1.62L760.82,34.47a3.78,3.78,0,0,1,2.69-1.11h199v-4Z"/><rect class="cls-1" y="37.35" width="220" height="50"/><path class="cls-16" d="M21.47,66.94a6.68,6.68,0,0,1-1.35-4.61q0-6,5.63-6a8,8,0,0,1,1.68.18,4.76,4.76,0,0,1,1.33.45q.42.24.42.51A1.23,1.23,0,0,1,29,58a2.83,2.83,0,0,1-.37.59c-.14.17-.27.26-.38.26a2.25,2.25,0,0,1-.41-.17,4.58,4.58,0,0,0-.89-.31,5.19,5.19,0,0,0-1.25-.14,3,3,0,0,0-2.49,1,5,5,0,0,0-.81,3.15,5,5,0,0,0,.81,3.13,2.9,2.9,0,0,0,2.45,1A4.59,4.59,0,0,0,27,66.34a6.69,6.69,0,0,0,1.11-.42,1.09,1.09,0,0,1,.37-.14.53.53,0,0,1,.38.25,2.24,2.24,0,0,1,.33.57,1.44,1.44,0,0,1,.14.46c0,.26-.19.5-.58.71a4.46,4.46,0,0,1-1.41.48,9.07,9.07,0,0,1-1.7.17A5.45,5.45,0,0,1,21.47,66.94Z"/><path class="cls-16" d="M32.46,66.85a6.62,6.62,0,0,1-1.39-4.52,6.54,6.54,0,0,1,1.39-4.49,5.1,5.1,0,0,1,4-1.56,5.1,5.1,0,0,1,4,1.55,6.55,6.55,0,0,1,1.38,4.5,6.62,6.62,0,0,1-1.38,4.52,5,5,0,0,1-4,1.57A5.07,5.07,0,0,1,32.46,66.85Zm6.29-1.41a5.23,5.23,0,0,0,.79-3.11,5.07,5.07,0,0,0-.79-3.09,3,3,0,0,0-4.59,0,5.07,5.07,0,0,0-.79,3.09,5.15,5.15,0,0,0,.79,3.11,3,3,0,0,0,4.59,0Z"/><path class="cls-16" d="M49.41,65,47,60.73a3.69,3.69,0,0,1-.39-.69h-.07c0,.2,0,.49,0,.87v6.92c0,.33-.3.49-.9.49h-.38c-.6,0-.9-.16-.9-.49v-11c0-.33.3-.49.9-.49h.8c.49,0,.81.13,1,.4L50,62a3.17,3.17,0,0,1,.27.56,3.6,3.6,0,0,1,.28-.58l3-5.2a1,1,0,0,1,.94-.4h.78c.6,0,.9.16.9.49v11c0,.33-.3.49-.9.49h-.38c-.6,0-.9-.16-.9-.49V61c0-.38,0-.67,0-.86l-.07,0a3.79,3.79,0,0,1-.39.7L51.11,65a.63.63,0,0,1-.57.29H50A.66.66,0,0,1,49.41,65Z"/><path class="cls-16" d="M59.33,68.21a.38.38,0,0,1-.21-.37V57a.66.66,0,0,1,.15-.48.61.61,0,0,1,.46-.15h3.54a5,5,0,0,1,2.75.75A3.1,3.1,0,0,1,67.21,60,3.31,3.31,0,0,1,65,63.36a5,5,0,0,1-1.54.28H61.35v4.2c0,.33-.3.49-.9.49H60A1.47,1.47,0,0,1,59.33,68.21Zm3.92-6.49a1.93,1.93,0,0,0,1.17-.38A1.6,1.6,0,0,0,64.93,60a1.49,1.49,0,0,0-.52-1.31,2.1,2.1,0,0,0-1.24-.38H61.35v3.42Z"/><path class="cls-16" d="M69.52,68.15a.67.67,0,0,1-.15-.48V56.86c0-.33.3-.49.9-.49h.43a1.7,1.7,0,0,1,.69.11.41.41,0,0,1,.21.38V66.4h4a.36.36,0,0,1,.34.17,1.3,1.3,0,0,1,.1.56v.44a1.25,1.25,0,0,1-.1.55.37.37,0,0,1-.34.18H70A.67.67,0,0,1,69.52,68.15Z"/><path class="cls-16" d="M78.18,68.15a.63.63,0,0,1-.16-.48V57a.63.63,0,0,1,.16-.49.69.69,0,0,1,.47-.14H84.6a.39.39,0,0,1,.35.17,1.1,1.1,0,0,1,.11.56v.44a1.1,1.1,0,0,1-.11.56.37.37,0,0,1-.35.17H80.25v3h3.88a.4.4,0,0,1,.35.17,1.1,1.1,0,0,1,.11.56v.44a1.07,1.07,0,0,1-.11.56.39.39,0,0,1-.35.18H80.25V66.4h4.37a.38.38,0,0,1,.35.17,1.1,1.1,0,0,1,.11.56v.44a1.1,1.1,0,0,1-.11.56.4.4,0,0,1-.35.17h-6A.65.65,0,0,1,78.18,68.15Z"/><path class="cls-16" d="M89.87,67.84V58.3H87a.38.38,0,0,1-.35-.17,1.1,1.1,0,0,1-.11-.56v-.44a1.1,1.1,0,0,1,.11-.56A.4.4,0,0,1,87,56.4h8a.4.4,0,0,1,.35.17,1.1,1.1,0,0,1,.11.56v.44a1.1,1.1,0,0,1-.11.56.38.38,0,0,1-.35.17H92.12v9.54c0,.33-.3.49-.9.49h-.45C90.17,68.33,89.87,68.17,89.87,67.84Z"/><path class="cls-16" d="M97.64,68.15a.67.67,0,0,1-.15-.48V57a.67.67,0,0,1,.15-.49.71.71,0,0,1,.48-.14h5.95a.4.4,0,0,1,.35.17,1.1,1.1,0,0,1,.11.56v.44a1.1,1.1,0,0,1-.11.56.38.38,0,0,1-.35.17H99.72v3h3.87a.39.39,0,0,1,.35.17,1.1,1.1,0,0,1,.11.56v.44a1.07,1.07,0,0,1-.11.56.38.38,0,0,1-.35.18H99.72V66.4h4.36a.37.37,0,0,1,.35.17,1,1,0,0,1,.11.56v.44a1,1,0,0,1-.11.56.39.39,0,0,1-.35.17h-6A.66.66,0,0,1,97.64,68.15Z"/><path class="cls-16" d="M107.35,68.15a.67.67,0,0,1-.15-.48V56.86c0-.33.3-.49.9-.49h.42a1.64,1.64,0,0,1,.69.11.41.41,0,0,1,.21.38V66.4h4a.35.35,0,0,1,.34.17,1.17,1.17,0,0,1,.1.56v.44a1.12,1.12,0,0,1-.1.55.36.36,0,0,1-.34.18h-5.63A.65.65,0,0,1,107.35,68.15Z"/><path class="cls-16" d="M118.07,67.84V62.45l-3.43-5.37a.85.85,0,0,1-.17-.39c0-.22.33-.32,1-.32H116c.48,0,.78.1.92.3l2.33,3.83,2.34-3.85c.14-.19.45-.28.94-.28H123c.62,0,.94.1.94.32a.84.84,0,0,1-.16.39L120.3,62.5v5.34c0,.33-.3.49-.9.49H119C118.38,68.33,118.07,68.17,118.07,67.84Z"/><path class="cls-16" d="M130.28,67.84V57a.67.67,0,0,1,.15-.49.72.72,0,0,1,.48-.14h5.51a.4.4,0,0,1,.35.17,1.1,1.1,0,0,1,.11.56v.44a1.1,1.1,0,0,1-.11.56.38.38,0,0,1-.35.17h-3.91v3h3.72a.39.39,0,0,1,.35.17,1.1,1.1,0,0,1,.11.56v.44a1.07,1.07,0,0,1-.11.56.38.38,0,0,1-.35.18h-3.72v4.67a.38.38,0,0,1-.21.37,1.52,1.52,0,0,1-.69.12h-.43C130.58,68.33,130.28,68.17,130.28,67.84Z"/><path class="cls-16" d="M139.41,68.15a.67.67,0,0,1-.15-.48V56.86c0-.33.3-.49.9-.49h.42a1.64,1.64,0,0,1,.69.11.41.41,0,0,1,.21.38V66.4h4a.35.35,0,0,1,.34.17,1.17,1.17,0,0,1,.1.56v.44a1.12,1.12,0,0,1-.1.55.36.36,0,0,1-.34.18h-5.62A.66.66,0,0,1,139.41,68.15Z"/><path class="cls-16" d="M148.06,68.15a.67.67,0,0,1-.15-.48V57a.67.67,0,0,1,.15-.49.71.71,0,0,1,.48-.14h6a.4.4,0,0,1,.35.17,1.1,1.1,0,0,1,.11.56v.44a1.1,1.1,0,0,1-.11.56.38.38,0,0,1-.35.17h-4.35v3H154a.39.39,0,0,1,.35.17,1,1,0,0,1,.11.56v.44a1,1,0,0,1-.11.56.38.38,0,0,1-.35.18h-3.87V66.4h4.37a.36.36,0,0,1,.34.17,1,1,0,0,1,.11.56v.44a1,1,0,0,1-.11.56.38.38,0,0,1-.34.17h-6A.66.66,0,0,1,148.06,68.15Z"/><path class="cls-16" d="M156.41,68a.88.88,0,0,1,.15-.39l3.62-5.55-3.21-5a.8.8,0,0,1-.15-.39c0-.2.32-.3,1-.3h.54c.48,0,.78.1.92.3l2.21,3.49,2.31-3.51a.55.55,0,0,1,.32-.23,3.12,3.12,0,0,1,.6-.05h.47c.65,0,1,.1,1,.3a.8.8,0,0,1-.15.39l-3.28,5,3.55,5.55a.84.84,0,0,1,.14.39c0,.2-.32.3-1,.3h-.53c-.47,0-.78-.1-.92-.3l-2.56-4-2.62,4a.64.64,0,0,1-.35.23,2.27,2.27,0,0,1-.59.06h-.47C156.73,68.33,156.41,68.23,156.41,68Z"/><path class="cls-16" d="M168.29,67.84v-11c0-.34.31-.51.92-.51h.43q.9,0,.9.51v11q0,.51-.9.51h-.43C168.6,68.35,168.29,68.18,168.29,67.84Z"/><path class="cls-16" d="M173.82,68.15a.68.68,0,0,1-.16-.48V57a.67.67,0,0,1,.16-.49.69.69,0,0,1,.47-.14h3.25a4.6,4.6,0,0,1,3,.81,2.69,2.69,0,0,1,1,2.2A2.56,2.56,0,0,1,181,61a2.87,2.87,0,0,1-1.32,1l0,.07a2.75,2.75,0,0,1,1,.46,3.18,3.18,0,0,1,.91,1,2.54,2.54,0,0,1,.38,1.37,3.09,3.09,0,0,1-1.09,2.55,5,5,0,0,1-3.23.88h-3.37A.65.65,0,0,1,173.82,68.15Zm3.53-6.87a2,2,0,0,0,1.34-.44,1.38,1.38,0,0,0,.5-1.09c0-1-.61-1.46-1.84-1.46h-1.46v3Zm.5,5.12a2,2,0,0,0,1.36-.44,1.6,1.6,0,0,0,.47-1.23,1.35,1.35,0,0,0-.54-1.15,2.67,2.67,0,0,0-1.57-.4h-1.68V66.4Z"/><path class="cls-16" d="M184.32,68.15a.67.67,0,0,1-.15-.48V56.86c0-.33.3-.49.9-.49h.43a1.7,1.7,0,0,1,.69.11.41.41,0,0,1,.21.38V66.4h4a.36.36,0,0,1,.34.17,1.3,1.3,0,0,1,.1.56v.44a1.25,1.25,0,0,1-.1.55.37.37,0,0,1-.34.18H184.8A.67.67,0,0,1,184.32,68.15Z"/><path class="cls-16" d="M193,68.15a.63.63,0,0,1-.16-.48V57a.63.63,0,0,1,.16-.49.69.69,0,0,1,.47-.14h6a.39.39,0,0,1,.35.17,1.1,1.1,0,0,1,.11.56v.44a1.1,1.1,0,0,1-.11.56.37.37,0,0,1-.35.17h-4.35v3h3.88a.38.38,0,0,1,.34.17,1,1,0,0,1,.11.56v.44a1,1,0,0,1-.11.56.37.37,0,0,1-.34.18h-3.88V66.4h4.37a.38.38,0,0,1,.35.17,1.1,1.1,0,0,1,.11.56v.44a1.1,1.1,0,0,1-.11.56.4.4,0,0,1-.35.17h-6A.65.65,0,0,1,193,68.15Z"/><rect class="cls-1" x="37.29" y="142.24" width="220" height="50"/><path class="cls-16" d="M97.62,172.74v-11c0-.34.31-.51.92-.51H99q.9,0,.9.51v11q0,.51-.9.51h-.43C97.93,173.25,97.62,173.08,97.62,172.74Z"/><path class="cls-16" d="M102.88,172.74v-11c0-.32.3-.49.9-.49h.61a1.65,1.65,0,0,1,.6.09.64.64,0,0,1,.37.32l4.35,6.65a6.5,6.5,0,0,1,.6,1l.06,0c0-.26,0-.65,0-1.16v-6.41c0-.32.3-.49.9-.49h.37c.61,0,.91.17.91.49v11c0,.32-.3.49-.91.49h-.54a1.48,1.48,0,0,1-.57-.09.73.73,0,0,1-.36-.3l-4.46-6.77a5.65,5.65,0,0,1-.59-1l-.07,0c0,.26,0,.64,0,1.15v6.5c0,.32-.3.49-.9.49h-.37C103.18,173.23,102.88,173.06,102.88,172.74Z"/><path class="cls-16" d="M117.79,172.74V163.2H114.9a.39.39,0,0,1-.35-.17,1,1,0,0,1-.11-.56V162a1.06,1.06,0,0,1,.11-.57.39.39,0,0,1,.35-.17h8a.39.39,0,0,1,.35.17,1.17,1.17,0,0,1,.11.57v.44a1.1,1.1,0,0,1-.11.56.39.39,0,0,1-.35.17H120v9.54c0,.32-.3.49-.9.49h-.44C118.09,173.23,117.79,173.06,117.79,172.74Z"/><path class="cls-16" d="M125.56,173a.61.61,0,0,1-.16-.47V161.92a.62.62,0,0,1,.16-.48.65.65,0,0,1,.47-.15H132a.39.39,0,0,1,.35.17,1.17,1.17,0,0,1,.11.57v.44a1.1,1.1,0,0,1-.11.56.39.39,0,0,1-.35.17h-4.35v3h3.87a.37.37,0,0,1,.35.17,1,1,0,0,1,.11.56v.44a1,1,0,0,1-.11.56.39.39,0,0,1-.35.17h-3.87v3.23H132a.4.4,0,0,1,.35.17,1.1,1.1,0,0,1,.11.56v.44a1.1,1.1,0,0,1-.11.56.38.38,0,0,1-.35.17h-6A.65.65,0,0,1,125.56,173Z"/><path class="cls-16" d="M143.76,166.9a.61.61,0,0,1,.15.46V172c0,.49-.4.83-1.2,1a11.88,11.88,0,0,1-2.71.28,5.31,5.31,0,0,1-4.11-1.48,6.55,6.55,0,0,1-1.36-4.57c0-4.06,1.88-6.08,5.63-6.08a8.91,8.91,0,0,1,1.6.15,5,5,0,0,1,1.36.42c.36.17.54.36.54.56a1.27,1.27,0,0,1-.16.54,3.15,3.15,0,0,1-.38.59.59.59,0,0,1-.39.25,1.62,1.62,0,0,1-.42-.17,5.52,5.52,0,0,0-.92-.3,5.36,5.36,0,0,0-1.27-.14,2.94,2.94,0,0,0-2.5,1,5,5,0,0,0-.79,3.09q0,4.2,3.21,4.2a8.44,8.44,0,0,0,1.63-.15v-2.6H140a.38.38,0,0,1-.34-.17,1,1,0,0,1-.11-.57v-.44a1,1,0,0,1,.11-.56.38.38,0,0,1,.34-.17h3.29A.65.65,0,0,1,143.76,166.9Z"/><path class="cls-16" d="M146.89,172.74V161.92a.69.69,0,0,1,.14-.47.65.65,0,0,1,.47-.16h3.16a5.23,5.23,0,0,1,3.16.79,3.1,3.1,0,0,1,.5,4,3.06,3.06,0,0,1-1.45,1.07v.07a1.59,1.59,0,0,1,.72.61,5.5,5.5,0,0,1,.61,1.14l1.44,3.61a1.3,1.3,0,0,1,.07.29c0,.21-.3.32-.92.32h-.51c-.49,0-.79-.11-.88-.32l-1.33-3.34a2.18,2.18,0,0,0-.72-1,2.36,2.36,0,0,0-1.26-.27h-1v4.41c0,.32-.3.49-.9.49h-.43C147.19,173.23,146.89,173.06,146.89,172.74Zm4.06-6.33a1.5,1.5,0,0,0,1.12-.5,1.65,1.65,0,0,0,.48-1.18,1.39,1.39,0,0,0-.46-1.13,1.82,1.82,0,0,0-1.26-.4h-1.71v3.21Z"/><path class="cls-16" d="M156.41,172.89a1.3,1.3,0,0,1,.07-.29l3.84-11c.07-.21.36-.32.87-.32h.74c.5,0,.79.11.87.32l3.84,11a.84.84,0,0,1,.05.29c0,.23-.27.34-.81.34h-.53c-.5,0-.79-.11-.87-.32l-.78-2.33h-4.35l-.78,2.33c-.08.21-.33.32-.75.32h-.48C156.72,173.23,156.41,173.12,156.41,172.89Zm6.65-4.22-1.24-3.74a5.51,5.51,0,0,1-.24-1.05h-.07c0,.07,0,.21-.09.44a3.16,3.16,0,0,1-.17.61L160,168.67Z"/><path class="cls-16" d="M170.06,172.74V163.2h-2.89a.4.4,0,0,1-.35-.17,1.1,1.1,0,0,1-.11-.56V162a1.17,1.17,0,0,1,.11-.57.4.4,0,0,1,.35-.17h8a.4.4,0,0,1,.35.17,1.17,1.17,0,0,1,.11.57v.44a1.1,1.1,0,0,1-.11.56.4.4,0,0,1-.35.17H172.3v9.54c0,.32-.3.49-.9.49H171C170.36,173.23,170.06,173.06,170.06,172.74Z"/><path class="cls-16" d="M177.83,173a.65.65,0,0,1-.15-.47V161.92a.54.54,0,0,1,.63-.63h5.95a.38.38,0,0,1,.34.17,1.06,1.06,0,0,1,.11.57v.44a1,1,0,0,1-.11.56.38.38,0,0,1-.34.17H179.9v3h3.88a.38.38,0,0,1,.35.17,1.1,1.1,0,0,1,.11.56v.44a1.1,1.1,0,0,1-.11.56.4.4,0,0,1-.35.17H179.9v3.23h4.37a.39.39,0,0,1,.35.17,1.1,1.1,0,0,1,.11.56v.44a1.1,1.1,0,0,1-.11.56.37.37,0,0,1-.35.17h-6A.66.66,0,0,1,177.83,173Z"/><path class="cls-16" d="M187.54,173a.61.61,0,0,1-.16-.47V161.92a.62.62,0,0,1,.16-.48.65.65,0,0,1,.47-.15h3.57a5.16,5.16,0,0,1,3.95,1.5,7.7,7.7,0,0,1,0,8.91,5.16,5.16,0,0,1-3.95,1.49H188A.65.65,0,0,1,187.54,173Zm4-1.75a2.81,2.81,0,0,0,2.3-1,6,6,0,0,0,0-6.07,2.81,2.81,0,0,0-2.3-1h-1.9v8.09Z"/><rect class="cls-1" x="860.23" y="6.36" width="220" height="50"/><path class="cls-16" d="M901.53,36.85V26a.53.53,0,0,1,.63-.62h5.51a.35.35,0,0,1,.34.17,1,1,0,0,1,.12.56v.44a1,1,0,0,1-.12.56.37.37,0,0,1-.34.17h-3.91v3h3.72a.38.38,0,0,1,.35.17,1.1,1.1,0,0,1,.11.56v.44a1.1,1.1,0,0,1-.11.56.38.38,0,0,1-.35.17h-3.72v4.68a.39.39,0,0,1-.22.37,1.45,1.45,0,0,1-.68.12h-.43C901.83,37.34,901.53,37.18,901.53,36.85Z"/><path class="cls-16" d="M909.16,37a1.45,1.45,0,0,1,.07-.29l3.84-11q.1-.33.87-.33h.75c.5,0,.78.11.86.33l3.85,11a1.18,1.18,0,0,1,.05.29c0,.23-.27.34-.82.34h-.53c-.5,0-.78-.11-.86-.32l-.78-2.33H912.1L911.32,37c-.08.21-.33.32-.75.32h-.47C909.47,37.34,909.16,37.23,909.16,37Zm6.65-4.22L914.57,29a6.41,6.41,0,0,1-.24-1.05h-.07c0,.07,0,.22-.08.44A4.08,4.08,0,0,1,914,29l-1.28,3.74Z"/><path class="cls-16" d="M922.42,36.36a3.68,3.68,0,0,1-1.26-3V25.87c0-.33.3-.5.9-.5h.43c.6,0,.9.17.9.5v7.42a2,2,0,0,0,.73,1.61,3.13,3.13,0,0,0,3.75,0,2,2,0,0,0,.74-1.6V25.87c0-.33.3-.5.9-.5h.41c.6,0,.9.17.9.5v7.51a3.68,3.68,0,0,1-1.26,3,6.49,6.49,0,0,1-7.14,0Z"/><path class="cls-16" d="M934,37.15a.65.65,0,0,1-.15-.47V25.87c0-.33.3-.5.9-.5h.43a1.45,1.45,0,0,1,.68.12.4.4,0,0,1,.22.38V35.4h4a.37.37,0,0,1,.34.18,1.25,1.25,0,0,1,.1.55v.44a1.3,1.3,0,0,1-.1.56.37.37,0,0,1-.34.18h-5.63A.63.63,0,0,1,934,37.15Z"/><path class="cls-16" d="M943.82,36.85V27.31h-2.89a.38.38,0,0,1-.34-.17,1,1,0,0,1-.11-.56v-.44a1,1,0,0,1,.11-.56.36.36,0,0,1,.34-.17h8a.37.37,0,0,1,.35.17,1.1,1.1,0,0,1,.11.56v.44a1.1,1.1,0,0,1-.11.56.39.39,0,0,1-.35.17h-2.87v9.54c0,.33-.3.49-.9.49h-.44C944.13,37.34,943.82,37.18,943.82,36.85Z"/><path class="cls-16" d="M958.09,36.85V27.31H955.2a.39.39,0,0,1-.35-.17,1,1,0,0,1-.11-.56v-.44a1,1,0,0,1,.11-.56.37.37,0,0,1,.35-.17h8a.37.37,0,0,1,.35.17,1,1,0,0,1,.11.56v.44a1,1,0,0,1-.11.56.39.39,0,0,1-.35.17h-2.87v9.54c0,.33-.3.49-.9.49H959C958.39,37.34,958.09,37.18,958.09,36.85Z"/><path class="cls-16" d="M966.52,35.86a6.57,6.57,0,0,1-1.39-4.52,6.54,6.54,0,0,1,1.39-4.5,5.92,5.92,0,0,1,8,0,6.55,6.55,0,0,1,1.39,4.51,6.57,6.57,0,0,1-1.39,4.52,5.86,5.86,0,0,1-8,0Zm6.28-1.41a5.15,5.15,0,0,0,.79-3.11,5.19,5.19,0,0,0-.78-3.1,3,3,0,0,0-4.6,0,5.12,5.12,0,0,0-.79,3.1,5.15,5.15,0,0,0,.79,3.11,3,3,0,0,0,4.59,0Z"/><path class="cls-16" d="M978.71,37.15a.65.65,0,0,1-.15-.47V25.87c0-.33.3-.5.9-.5h.42a1.47,1.47,0,0,1,.69.12.41.41,0,0,1,.21.38V35.4h4a.36.36,0,0,1,.34.18,1.12,1.12,0,0,1,.1.55v.44a1.17,1.17,0,0,1-.1.56.36.36,0,0,1-.34.18h-5.63A.61.61,0,0,1,978.71,37.15Z"/><path class="cls-16" d="M987.36,37.15a.65.65,0,0,1-.15-.47V26a.53.53,0,0,1,.63-.62h5.95a.38.38,0,0,1,.35.17,1.1,1.1,0,0,1,.11.56v.44a1.1,1.1,0,0,1-.11.56.4.4,0,0,1-.35.17h-4.36v3h3.88a.37.37,0,0,1,.35.17,1.1,1.1,0,0,1,.11.56v.44a1.1,1.1,0,0,1-.11.56.37.37,0,0,1-.35.17h-3.88V35.4h4.37a.39.39,0,0,1,.35.17,1,1,0,0,1,.11.56v.44a1,1,0,0,1-.11.57.39.39,0,0,1-.35.17h-6A.62.62,0,0,1,987.36,37.15Z"/><path class="cls-16" d="M996.85,36.85V26a.65.65,0,0,1,.14-.47.63.63,0,0,1,.47-.15h3.16a5.18,5.18,0,0,1,3.15.78,2.74,2.74,0,0,1,1,2.34,2.77,2.77,0,0,1-.52,1.7,3.11,3.11,0,0,1-1.45,1.07v.07a1.59,1.59,0,0,1,.72.61,5.5,5.5,0,0,1,.61,1.14l1.44,3.61a1.3,1.3,0,0,1,.07.29c0,.21-.31.32-.92.32h-.51c-.5,0-.79-.11-.88-.32L1002,33.68a2.09,2.09,0,0,0-.72-1,2.28,2.28,0,0,0-1.27-.28h-1v4.41c0,.33-.3.49-.9.49h-.42C997.15,37.34,996.85,37.18,996.85,36.85Zm4.06-6.33A1.46,1.46,0,0,0,1002,30a1.65,1.65,0,0,0,.48-1.18,1.44,1.44,0,0,0-.46-1.13,1.85,1.85,0,0,0-1.26-.4h-1.72v3.21Z"/><path class="cls-16" d="M1006.37,37a2,2,0,0,1,.06-.29l3.85-11c.07-.22.35-.33.86-.33h.75q.75,0,.87.33l3.84,11a.84.84,0,0,1,0,.29c0,.23-.27.34-.81.34h-.53c-.5,0-.79-.11-.87-.32l-.78-2.33h-4.35l-.78,2.33c-.08.21-.33.32-.75.32h-.48C1006.68,37.34,1006.37,37.23,1006.37,37Zm6.64-4.22L1011.77,29a5.61,5.61,0,0,1-.23-1.05h-.07c0,.07,0,.22-.09.44a3.16,3.16,0,0,1-.17.61l-1.27,3.74Z"/><path class="cls-16" d="M1018.44,36.85v-11c0-.33.3-.5.9-.5h.61a1.65,1.65,0,0,1,.6.09.64.64,0,0,1,.37.32l4.35,6.65a7.56,7.56,0,0,1,.6,1l.06,0c0-.26,0-.65,0-1.16v-6.4c0-.33.3-.5.9-.5h.38c.6,0,.9.17.9.5v11c0,.33-.3.49-.9.49h-.55a1.73,1.73,0,0,1-.57-.08.81.81,0,0,1-.36-.31l-4.46-6.77a5.65,5.65,0,0,1-.59-1l-.07,0c0,.26,0,.64,0,1.15v6.5c0,.33-.3.49-.9.49h-.37C1018.74,37.34,1018.44,37.18,1018.44,36.85Z"/><path class="cls-16" d="M1033.35,36.85V27.31h-2.89a.39.39,0,0,1-.35-.17,1,1,0,0,1-.11-.56v-.44a1,1,0,0,1,.11-.56.37.37,0,0,1,.35-.17h8a.37.37,0,0,1,.35.17,1,1,0,0,1,.11.56v.44a1,1,0,0,1-.11.56.39.39,0,0,1-.35.17h-2.87v9.54c0,.33-.3.49-.9.49h-.44C1033.65,37.34,1033.35,37.18,1033.35,36.85Z"/><rect class="cls-1" x="803.4" y="126.57" width="220" height="50"/><path class="cls-16" d="M876.51,157.4a4.25,4.25,0,0,1-1.38-.6c-.28-.21-.43-.4-.43-.57a1.56,1.56,0,0,1,.34-.81c.23-.32.42-.49.57-.49a1.48,1.48,0,0,1,.42.19,7,7,0,0,0,1,.44,3.56,3.56,0,0,0,1.19.17,2.19,2.19,0,0,0,1.28-.36,1.25,1.25,0,0,0,.52-1.1,1.18,1.18,0,0,0-.26-.77,2.3,2.3,0,0,0-.66-.53,11.19,11.19,0,0,0-1.09-.5l-.59-.26a6.36,6.36,0,0,1-1.31-.72,3,3,0,0,1-.87-1,3.55,3.55,0,0,1-.34-1.63,3.09,3.09,0,0,1,.54-1.83,3.27,3.27,0,0,1,1.43-1.13,5.1,5.1,0,0,1,2-.37,6.58,6.58,0,0,1,1.48.17,3.06,3.06,0,0,1,1.1.46q.36.26.36.51a1.74,1.74,0,0,1-.29.79q-.28.48-.51.48a.83.83,0,0,1-.27-.08l-.29-.14a3.75,3.75,0,0,0-1.45-.29,2,2,0,0,0-1.35.37,1.14,1.14,0,0,0-.43.92,1.24,1.24,0,0,0,.25.81,1.82,1.82,0,0,0,.63.5,11.86,11.86,0,0,0,1.11.48,13.38,13.38,0,0,1,1.59.76,3.34,3.34,0,0,1,1.08,1.07,3.15,3.15,0,0,1,.45,1.76,3.25,3.25,0,0,1-1.08,2.67,4.15,4.15,0,0,1-2.72.9A7.93,7.93,0,0,1,876.51,157.4Z"/><path class="cls-16" d="M885.35,156.16a6.68,6.68,0,0,1-1.35-4.61q0-6,5.63-6.05a8,8,0,0,1,1.68.18,4.76,4.76,0,0,1,1.33.45q.42.24.42.51a1.27,1.27,0,0,1-.16.53,2.68,2.68,0,0,1-.37.59.55.55,0,0,1-.38.25,1.63,1.63,0,0,1-.41-.17,5.41,5.41,0,0,0-.89-.3,5.19,5.19,0,0,0-1.25-.14,3,3,0,0,0-2.49,1,6.49,6.49,0,0,0,0,6.28,2.9,2.9,0,0,0,2.45,1,4.59,4.59,0,0,0,1.36-.17,6.69,6.69,0,0,0,1.11-.42,1.09,1.09,0,0,1,.37-.14.5.5,0,0,1,.38.25,2.61,2.61,0,0,1,.34.57,1.35,1.35,0,0,1,.13.46c0,.26-.19.5-.58.71a5,5,0,0,1-1.41.48,9.07,9.07,0,0,1-1.7.17A5.48,5.48,0,0,1,885.35,156.16Z"/><path class="cls-16" d="M894.19,157.21a2,2,0,0,1,.06-.29l3.85-11c.06-.22.35-.33.86-.33h.75q.75,0,.87.33l3.84,11a1.26,1.26,0,0,1,.05.29c0,.23-.27.34-.81.34h-.53c-.5,0-.79-.11-.87-.32l-.78-2.33h-4.35l-.78,2.33c-.08.21-.33.32-.75.32h-.48C894.5,157.55,894.19,157.44,894.19,157.21Zm6.64-4.21-1.24-3.74a6.56,6.56,0,0,1-.24-1.06h-.06c0,.07,0,.22-.09.44a3.49,3.49,0,0,1-.17.62L897.76,153Z"/><path class="cls-16" d="M906.53,157.36a.65.65,0,0,1-.15-.47V146.08c0-.33.3-.5.9-.5h.42a1.47,1.47,0,0,1,.69.12.41.41,0,0,1,.21.38v9.53h4a.36.36,0,0,1,.34.18,1.15,1.15,0,0,1,.1.55v.45a1.12,1.12,0,0,1-.1.55.36.36,0,0,1-.34.18H907A.61.61,0,0,1,906.53,157.36Z"/><path class="cls-16" d="M913.68,157.21s0-.13.07-.29l3.84-11q.1-.33.87-.33h.75q.75,0,.87.33l3.84,11a1.26,1.26,0,0,1,.05.29c0,.23-.27.34-.82.34h-.52c-.5,0-.79-.11-.87-.32L921,154.9h-4.35l-.79,2.33c-.08.21-.33.32-.74.32h-.48C914,157.55,913.68,157.44,913.68,157.21Zm6.65-4.21-1.24-3.74a6.56,6.56,0,0,1-.24-1.06h-.07c0,.07,0,.22-.08.44a4.61,4.61,0,0,1-.17.62L917.25,153Z"/><path class="cls-16" d="M926,157.36a.65.65,0,0,1-.16-.47V146.25a.67.67,0,0,1,.16-.49.69.69,0,0,1,.47-.14h3.25a4.6,4.6,0,0,1,3,.81,2.69,2.69,0,0,1,1,2.2,2.56,2.56,0,0,1-.53,1.57,2.87,2.87,0,0,1-1.32,1l0,.07a2.65,2.65,0,0,1,1,.46,3.17,3.17,0,0,1,.92,1,2.57,2.57,0,0,1,.38,1.37,3.09,3.09,0,0,1-1.09,2.56,5,5,0,0,1-3.23.88H926.5A.61.61,0,0,1,926,157.36Zm3.53-6.86a2,2,0,0,0,1.34-.44,1.39,1.39,0,0,0,.5-1.09c0-1-.61-1.47-1.84-1.47H928.1v3Zm.5,5.11a2,2,0,0,0,1.36-.43,1.6,1.6,0,0,0,.47-1.23,1.35,1.35,0,0,0-.54-1.15,2.6,2.6,0,0,0-1.57-.4H928.1v3.21Z"/><path class="cls-16" d="M936.53,157.36a.65.65,0,0,1-.15-.47V146.08c0-.33.3-.5.9-.5h.43a1.45,1.45,0,0,1,.68.12.4.4,0,0,1,.22.38v9.53h4a.37.37,0,0,1,.34.18,1.28,1.28,0,0,1,.1.55v.45a1.25,1.25,0,0,1-.1.55.37.37,0,0,1-.34.18H937A.63.63,0,0,1,936.53,157.36Z"/><path class="cls-16" d="M945.19,157.36a.61.61,0,0,1-.16-.47V146.25a.63.63,0,0,1,.16-.49.69.69,0,0,1,.47-.14h6a.37.37,0,0,1,.35.17,1.1,1.1,0,0,1,.11.56v.44a1.1,1.1,0,0,1-.11.56.39.39,0,0,1-.35.17h-4.35v3h3.88a.38.38,0,0,1,.34.17,1,1,0,0,1,.11.56v.44a1,1,0,0,1-.11.56.36.36,0,0,1-.34.17h-3.88v3.23h4.37a.4.4,0,0,1,.35.17,1.12,1.12,0,0,1,.11.56v.45a1.12,1.12,0,0,1-.11.56.4.4,0,0,1-.35.17h-6A.61.61,0,0,1,945.19,157.36Z"/></svg>