<svg id="Layer_1" data-name="Layer 1" xmlns="http://www.w3.org/2000/svg" viewBox="0 0 24 24"><defs><style>.cls-1{fill:#5dc2ef;}.cls-2{fill:#367dbf;}</style></defs><title>Artboard 20</title><path class="cls-1" d="M12.5,19.5h-8A.5.5,0,0,1,4,19V13a.5.5,0,0,1,.5-.5h8a.5.5,0,0,1,.5.5v6A.5.5,0,0,1,12.5,19.5ZM5,18.5h7v-5H5Z"/><path class="cls-1" d="M21.5,9.33a.5.5,0,0,0-.5.5V21.5H20V13a.5.5,0,0,0-.5-.5h-5a.5.5,0,0,0-.5.5v8.5H3V9.81a.5.5,0,0,0-1,0V22a.5.5,0,0,0,.5.5h19A.5.5,0,0,0,22,22V9.83A.5.5,0,0,0,21.5,9.33ZM15,21.5v-8h4v8Z"/><path class="cls-2" d="M24,5.79h0l-2-4a.51.51,0,0,0-.45-.28H2.5a.51.51,0,0,0-.45.28l-2,4h0A.46.46,0,0,0,0,6V7a3.5,3.5,0,0,0,3.5,3.5,3,3,0,0,0,1.92-.76A4.83,4.83,0,0,0,9,11.5a4.48,4.48,0,0,0,3-1.15,4.48,4.48,0,0,0,3,1.15,4.85,4.85,0,0,0,3.58-1.75,3,3,0,0,0,1.92.75A3.5,3.5,0,0,0,24,7V6A.46.46,0,0,0,24,5.79ZM22.69,5.5h-3.8l-.75-3h3.05ZM11.5,2.5v3H6.14l.75-3Zm1,0h4.61l.75,3H12.5Zm-9.69,0H5.86l-.75,3H1.31ZM1,7V6.5H5V8.78a2.19,2.19,0,0,1-1.5.72A2.5,2.5,0,0,1,1,7ZM6,8.84V6.5h5.5V9.42A3.48,3.48,0,0,1,9,10.5,3.79,3.79,0,0,1,6,8.84Zm9,1.66a3.5,3.5,0,0,1-2.5-1.08V6.5H18V8.84A3.79,3.79,0,0,1,15,10.5ZM23,7a2.5,2.5,0,0,1-2.5,2.5A2.21,2.21,0,0,1,19,8.78V6.5h4Z"/><path class="cls-1" d="M17.5,17.5a.5.5,0,1,0,.5.5.5.5,0,0,0-.5-.5Z"/></svg>