<svg id="Layer_1" data-name="Layer 1" xmlns="http://www.w3.org/2000/svg" viewBox="0 0 24 24"><defs><style>.cls-1{fill:#367dbf;}.cls-2{fill:#5dc2ef;}</style></defs><title>Artboard 19</title><path class="cls-1" d="M18.36,9.14a.48.48,0,0,0-.7,0L13,13.78a2,2,0,0,0-1-.28,2,2,0,1,0,2,2,2,2,0,0,0-.28-1l4.64-4.65A.48.48,0,0,0,18.36,9.14ZM12,16.5a1,1,0,1,1,1-1A1,1,0,0,1,12,16.5Z"/><path class="cls-2" d="M4.5,16.5h-2a.5.5,0,0,1,0-1h2a.5.5,0,0,1,0,1Z"/><path class="cls-2" d="M21.5,16.5h-2a.5.5,0,0,1,0-1h2a.5.5,0,0,1,0,1Z"/><path class="cls-2" d="M18.93,13.13a.5.5,0,0,1-.46-.31.49.49,0,0,1,.27-.65l1.85-.77a.51.51,0,0,1,.65.27.52.52,0,0,1-.27.66l-1.85.76A.43.43,0,0,1,18.93,13.13Z"/><path class="cls-2" d="M14.87,9.07a.43.43,0,0,1-.19,0,.49.49,0,0,1-.27-.65l.76-1.85a.5.5,0,0,1,.93.38l-.77,1.85A.5.5,0,0,1,14.87,9.07Z"/><path class="cls-2" d="M12,8.5a.5.5,0,0,1-.5-.5V6a.5.5,0,0,1,1,0V8A.5.5,0,0,1,12,8.5Z"/><path class="cls-2" d="M9.13,9.07a.5.5,0,0,1-.46-.31L7.9,6.91a.5.5,0,0,1,.93-.38l.76,1.85A.49.49,0,0,1,9.32,9,.43.43,0,0,1,9.13,9.07Z"/><path class="cls-2" d="M6.7,10.7a.51.51,0,0,1-.36-.15L4.93,9.13a.48.48,0,0,1,0-.7.5.5,0,0,1,.71,0L7.05,9.84a.51.51,0,0,1,0,.71A.5.5,0,0,1,6.7,10.7Z"/><path class="cls-2" d="M5.07,13.13a.43.43,0,0,1-.19,0L3,12.33a.52.52,0,0,1-.27-.66.51.51,0,0,1,.65-.27l1.85.77a.49.49,0,0,1,.27.65A.5.5,0,0,1,5.07,13.13Z"/><path class="cls-2" d="M23.5,20.5H.5A.5.5,0,0,1,0,20V15.5a12,12,0,0,1,24,0V20A.5.5,0,0,1,23.5,20.5ZM1,19.5H23v-4a11,11,0,0,0-22,0Z"/></svg>