<svg id="Layer_1" data-name="Layer 1" xmlns="http://www.w3.org/2000/svg" viewBox="0 0 24 24"><defs><style>.cls-1{fill:#5dc2ef;}.cls-2{fill:#367dbf;}</style></defs><title>Artboard 21</title><path class="cls-1" d="M17.5,22.5l-.13,0L12,21,6.63,22.48a.43.43,0,0,1-.25,0L.38,21A.5.5,0,0,1,0,20.47L1,2a.49.49,0,0,1,.21-.38.51.51,0,0,1,.42-.07L7,3l4.87-1.46a.45.45,0,0,1,.28,0L17,3l5.36-1.46a.52.52,0,0,1,.42.07A.49.49,0,0,1,23,2l1,18.5a.5.5,0,0,1-.38.51l-6,1.5A.25.25,0,0,1,17.5,22.5ZM12,20l.13,0,5.38,1.46L23,20.12,22,2.65,17.13,4a.42.42,0,0,1-.27,0L12,2.52,7.14,4a.42.42,0,0,1-.27,0L2,2.65,1,20.12l5.47,1.36L11.87,20Z"/><path class="cls-2" d="M18.71,8l.64-.65a.49.49,0,1,0-.7-.7L18,7.29l-.65-.64a.49.49,0,0,0-.7.7l.64.65-.64.65a.48.48,0,0,0,0,.7.48.48,0,0,0,.7,0L18,8.71l.65.64a.48.48,0,0,0,.7,0,.48.48,0,0,0,0-.7Z"/><path class="cls-2" d="M4.65,15.15l-.5.5a.48.48,0,0,0,0,.7.48.48,0,0,0,.7,0l.5-.5a.49.49,0,0,0-.7-.7Z"/><path class="cls-2" d="M7.65,12.15l-.5.5a.48.48,0,0,0,0,.7.48.48,0,0,0,.7,0l.5-.5a.49.49,0,0,0-.7-.7Z"/><path class="cls-2" d="M18.5,10a.5.5,0,0,0-.5.5v1a.5.5,0,0,0,1,0v-1A.5.5,0,0,0,18.5,10Z"/><path class="cls-2" d="M14.35,12.65a.49.49,0,0,0-.7.7l.5.5a.48.48,0,0,0,.7,0,.48.48,0,0,0,0-.7Z"/><path class="cls-2" d="M12,10.5H11a.5.5,0,0,0,0,1h1a.5.5,0,0,0,0-1Z"/><path class="cls-2" d="M17.65,13.65l-.5.5a.48.48,0,0,0,0,.7.48.48,0,0,0,.7,0l.5-.5a.49.49,0,1,0-.7-.7Z"/></svg>