<svg width="64" height="64" viewBox="0 0 64 64" fill="none" xmlns="http://www.w3.org/2000/svg">
<path d="M61.6857 28.0534C59.3748 24.2608 55.416 21.9568 50.4438 21.6534C49.6542 19.2581 47.9899 17.2499 45.7841 16.0309C43.398 14.7467 40.6215 14.3921 37.9897 15.0354C35.6522 12.4859 32.5143 10.8132 29.0965 10.2947C25.3722 9.71042 21.5585 10.2347 18.1293 11.8022C11.4997 14.8268 7.71139 20.6958 8.22281 27.1147C5.7472 27.8006 3.58347 29.3199 2.09635 31.4166C0.609227 33.5134 -0.110334 36.0593 0.0589557 38.6252C0.343081 43.7642 3.942 49.1686 10.2875 49.5479H20.4307H22.4007C22.6788 49.5491 22.9545 49.4953 23.2118 49.3896C23.4691 49.2839 23.7031 49.1284 23.9002 48.9319C24.0973 48.7355 24.2537 48.502 24.3605 48.2448C24.4672 47.9877 24.5221 47.712 24.5221 47.4335V39.3268L32.2598 48.8083C32.4418 49.0295 32.6703 49.2078 32.9289 49.3307C33.1875 49.4536 33.4699 49.518 33.7562 49.5194H33.8414C34.2137 49.5358 34.5825 49.442 34.9017 49.2496C35.2209 49.0572 35.4764 48.7748 35.6361 48.4378C35.7958 48.1008 35.8527 47.7241 35.7997 47.3549C35.7466 46.9857 35.586 46.6404 35.3378 46.3621L29.4185 39.1372L34.7317 33.4484C35.0069 33.1798 35.194 32.8338 35.2681 32.4564C35.3423 32.0789 35.3 31.6877 35.1469 31.3349C34.9938 30.982 34.7371 30.6841 34.4109 30.4807C34.0847 30.2774 33.7044 30.1781 33.3205 30.1962C33.0576 30.1944 32.7972 30.2475 32.5559 30.3519C32.3146 30.4564 32.0976 30.61 31.9188 30.803L24.4937 38.7011V22.8291C24.4937 22.5801 24.4447 22.3335 24.3495 22.1035C24.2543 21.8734 24.1148 21.6643 23.9389 21.4882C23.763 21.3122 23.5542 21.1725 23.3244 21.0772C23.0946 20.9819 22.8483 20.9328 22.5995 20.9328H22.3722C22.1235 20.9328 21.8772 20.9819 21.6474 21.0772C21.4176 21.1725 21.2088 21.3122 21.0329 21.4883C20.857 21.6643 20.7174 21.8734 20.6223 22.1035C20.5271 22.3335 20.4781 22.5801 20.4781 22.8291V45.4613H10.4769C6.56542 45.1959 4.33977 41.7257 4.1693 38.4166C3.99882 35.2593 5.66569 31.571 10.8462 30.7177C11.119 30.6725 11.3797 30.5724 11.6128 30.4235C11.8458 30.2746 12.0462 30.08 12.202 29.8513C12.3578 29.6227 12.4657 29.3648 12.5192 29.0933C12.5726 28.8218 12.5706 28.5422 12.5131 28.2715C11.1967 21.9189 15.4206 17.529 19.8151 15.5379C24.8347 13.2718 31.6821 13.3477 35.6598 18.6383C35.9307 18.9974 36.3118 19.2577 36.7445 19.3793C37.1773 19.5009 37.638 19.4771 38.0559 19.3115C38.9821 18.9475 39.9756 18.7871 40.9691 18.8411C41.9626 18.895 42.9329 19.1622 43.8142 19.6244C44.6227 20.0863 45.3162 20.7255 45.8427 21.494C46.3692 22.2624 46.7151 23.1403 46.8543 24.0617C46.9457 24.5376 47.202 24.966 47.578 25.2713C47.954 25.5766 48.4255 25.7392 48.9095 25.7305C54.289 25.6072 56.9124 28.0913 58.172 30.1962C59.0779 31.8155 59.5535 33.6404 59.5535 35.4963C59.5535 37.3523 59.0779 39.1772 58.172 40.7965C57.3411 42.2707 56.1196 43.4864 54.6423 44.3096C53.1649 45.1328 51.4891 45.5313 49.7998 45.4613H40.7835C40.2614 45.4515 39.7537 45.633 39.356 45.9718C38.9583 46.3106 38.698 46.7832 38.6242 47.3007C38.595 47.5871 38.6262 47.8765 38.7158 48.15C38.8053 48.4236 38.9512 48.6753 39.144 48.8889C39.3368 49.1025 39.5723 49.2732 39.8351 49.3899C40.0979 49.5067 40.3823 49.567 40.6699 49.5668H49.7998C52.2135 49.6375 54.6006 49.047 56.7036 47.859C58.8067 46.6709 60.5457 44.9305 61.733 42.8255C63.0135 40.5732 63.6829 38.0247 63.6746 35.4331C63.6663 32.8416 62.9806 30.2974 61.6857 28.0534Z" fill="#1D4ED8"/>
</svg>
