<svg width="252" height="42" viewBox="0 0 252 42" fill="none" xmlns="http://www.w3.org/2000/svg">
<g clip-path="url(#clip0_5314_566561)">
<path d="M90.2498 3.20703H90.4998C91.0816 3.20968 91.6386 3.44263 92.049 3.85492C92.4594 4.26721 92.6898 4.82528 92.6898 5.40703V25.497L101.14 16.497C101.346 16.2801 101.594 16.1071 101.869 15.9885C102.144 15.8699 102.44 15.8082 102.74 15.807C103.168 15.8069 103.588 15.932 103.946 16.1669C104.305 16.4018 104.587 16.7362 104.758 17.1292C104.929 17.5222 104.981 17.9566 104.909 18.379C104.836 18.8015 104.642 19.1935 104.35 19.507L98.2998 25.997L105 34.277C105.26 34.6 105.424 34.99 105.472 35.4019C105.52 35.8139 105.45 36.231 105.272 36.6053C105.093 36.9795 104.812 37.2956 104.461 37.5171C104.111 37.7385 103.705 37.8564 103.29 37.857H103.2C102.873 37.8563 102.55 37.7834 102.254 37.6433C101.959 37.5033 101.698 37.2997 101.49 37.047L92.6898 26.217V35.657C92.6911 35.9455 92.6355 36.2313 92.526 36.4982C92.4165 36.765 92.2554 37.0076 92.0519 37.2121C91.8484 37.4165 91.6066 37.5787 91.3402 37.6894C91.0739 37.8001 90.7883 37.857 90.4998 37.857H90.2498C89.9605 37.8584 89.6739 37.8024 89.4064 37.6923C89.1388 37.5822 88.8958 37.4202 88.6912 37.2156C88.4867 37.0111 88.3247 36.768 88.2146 36.5005C88.1045 36.233 88.0485 35.9463 88.0498 35.657V5.40703C88.0498 4.82355 88.2816 4.26398 88.6942 3.8514C89.1068 3.43882 89.6663 3.20703 90.2498 3.20703Z" fill="#1D4ED8"/>
<path d="M113.21 15.8402H113.26C113.868 15.8402 114.452 16.0811 114.883 16.5103C115.314 16.9395 115.557 17.5219 115.56 18.1302V28.2502C115.56 32.0769 117.227 33.9902 120.56 33.9902C121.229 34.0208 121.896 33.8989 122.511 33.6339C123.126 33.3688 123.673 32.9675 124.11 32.4602C125.043 31.2622 125.508 29.766 125.42 28.2502V18.1302C125.422 17.5219 125.666 16.9395 126.097 16.5103C126.528 16.0811 127.112 15.8402 127.72 15.8402C128.327 15.8402 128.91 16.0815 129.339 16.5109C129.769 16.9404 130.01 17.5228 130.01 18.1302V29.0002C130.054 30.2593 129.838 31.5139 129.375 32.6857C128.912 33.8574 128.212 34.9211 127.32 35.8102C126.412 36.6981 125.333 37.3925 124.149 37.8514C122.964 38.3103 121.699 38.5243 120.43 38.4802C119.156 38.5335 117.886 38.324 116.697 37.8646C115.508 37.4052 114.427 36.7059 113.52 35.8102C112.625 34.885 111.929 33.787 111.473 32.5834C111.017 31.3798 110.812 30.0959 110.87 28.8102V18.1302C110.871 17.8256 110.933 17.5243 111.052 17.2438C111.17 16.9632 111.343 16.7091 111.561 16.496C111.779 16.283 112.037 16.1153 112.32 16.0027C112.603 15.8901 112.905 15.8349 113.21 15.8402Z" fill="#1D4ED8"/>
<path d="M135.78 35.5691V18.1291C135.782 17.5226 136.025 16.9417 136.453 16.5128C136.882 16.0839 137.463 15.8418 138.07 15.8391C138.678 15.8391 139.262 16.0801 139.693 16.5092C140.124 16.9384 140.367 17.5209 140.37 18.1291V19.2291C141.238 18.0682 142.288 17.0551 143.48 16.2291C144.49 15.5678 145.673 15.2198 146.88 15.2291C148.279 15.1489 149.665 15.5358 150.82 16.3291C151.919 17.2635 152.754 18.4705 153.24 19.8291C154.15 18.478 155.287 17.294 156.6 16.3291C157.712 15.5886 159.024 15.2049 160.36 15.2291C161.213 15.2254 162.057 15.4016 162.838 15.7462C163.619 16.0908 164.318 16.5961 164.89 17.2291C165.504 17.8365 165.989 18.5612 166.317 19.3601C166.645 20.1589 166.809 21.0156 166.8 21.8791V35.5691C166.797 36.1774 166.554 36.7598 166.123 37.189C165.692 37.6182 165.108 37.8591 164.5 37.8591H164.45C163.842 37.8591 163.258 37.6182 162.827 37.189C162.396 36.7598 162.152 36.1774 162.15 35.5691V23.0491C162.15 20.6091 160.946 19.3891 158.54 19.3891C157.849 19.3943 157.169 19.5671 156.559 19.8929C155.95 20.2186 155.428 20.6874 155.04 21.2591C154.058 22.5948 153.554 24.2222 153.61 25.8791V35.5691C153.607 36.1774 153.364 36.7598 152.933 37.189C152.502 37.6182 151.918 37.8591 151.31 37.8591H151.26C150.658 37.8512 150.083 37.6065 149.66 37.1779C149.237 36.7493 149 36.1713 149 35.5691V23.6591C149 20.7791 147.81 19.3391 145.45 19.3391C144.758 19.336 144.074 19.4933 143.453 19.7987C142.832 20.104 142.29 20.5492 141.87 21.0991C140.87 22.3238 140.348 23.8691 140.4 25.4491V35.5691C140.397 36.1774 140.154 36.7598 139.723 37.189C139.292 37.6182 138.708 37.8591 138.1 37.8591C137.797 37.8618 137.496 37.8046 137.216 37.6908C136.935 37.577 136.68 37.4089 136.464 37.1961C136.248 36.9833 136.077 36.7301 135.96 36.4509C135.842 36.1717 135.781 35.872 135.78 35.5691Z" fill="#1D4ED8"/>
<path d="M174.71 15.8365C175.318 15.8365 175.901 16.0774 176.332 16.5066C176.763 16.9358 177.007 17.5182 177.01 18.1265V28.2465C177.01 32.0731 178.693 33.9865 182.06 33.9865C182.728 34.0148 183.395 33.892 184.009 33.6271C184.624 33.3622 185.171 32.9621 185.61 32.4565C186.535 31.2549 186.996 29.7604 186.91 28.2465V18.1265C186.912 17.5182 187.156 16.9358 187.587 16.5066C188.018 16.0774 188.601 15.8365 189.21 15.8365C189.818 15.8365 190.401 16.0774 190.832 16.5066C191.263 16.9358 191.507 17.5182 191.51 18.1265V28.9965C191.552 30.2562 191.334 31.5111 190.869 32.6828C190.405 33.8545 189.703 34.9179 188.81 35.8065C186.922 37.5246 184.462 38.4767 181.91 38.4767C179.357 38.4767 176.897 37.5246 175.01 35.8065C174.119 34.8791 173.425 33.7805 172.972 32.5773C172.518 31.3741 172.313 30.0912 172.37 28.8065V18.1265C172.369 17.8215 172.43 17.5196 172.549 17.2384C172.667 16.9573 172.84 16.7026 173.058 16.4893C173.276 16.276 173.534 16.1083 173.818 15.9962C174.102 15.8841 174.405 15.8298 174.71 15.8365Z" fill="#1D4ED8"/>
<path d="M199.58 3.20703C200.195 3.20703 200.785 3.45146 201.22 3.88654C201.655 4.32163 201.9 4.91173 201.9 5.52703V35.527C201.9 36.1423 201.655 36.7324 201.22 37.1675C200.785 37.6026 200.195 37.847 199.58 37.847C198.964 37.847 198.374 37.6026 197.939 37.1675C197.504 36.7324 197.26 36.1423 197.26 35.527V5.52703C197.26 5.22236 197.32 4.92068 197.436 4.63921C197.553 4.35773 197.724 4.10198 197.939 3.88654C198.374 3.45146 198.964 3.20703 199.58 3.20703Z" fill="#1D4ED8"/>
<path d="M210.64 15.8402H210.69C211.298 15.8402 211.882 16.0811 212.313 16.5103C212.744 16.9395 212.987 17.5219 212.99 18.1302V28.2502C212.997 32.0835 214.667 34.0002 218 34.0002C218.669 34.0285 219.335 33.9057 219.95 33.6408C220.564 33.3759 221.111 32.9758 221.55 32.4702C222.475 31.2687 222.937 29.7741 222.85 28.2602V18.1302C222.853 17.5219 223.096 16.9395 223.527 16.5103C223.958 16.0811 224.542 15.8402 225.15 15.8402C225.758 15.8402 226.342 16.0811 226.773 16.5103C227.204 16.9395 227.447 17.5219 227.45 18.1302V29.0002C227.492 30.2599 227.274 31.5148 226.81 32.6865C226.345 33.8582 225.644 34.9216 224.75 35.8102C222.863 37.5283 220.402 38.4805 217.85 38.4805C215.298 38.4805 212.837 37.5283 210.95 35.8102C210.059 34.8828 209.366 33.7842 208.912 32.581C208.458 31.3778 208.253 30.0949 208.31 28.8102V18.1302C208.31 17.8261 208.37 17.525 208.488 17.2445C208.606 16.964 208.778 16.7098 208.995 16.4966C209.212 16.2834 209.469 16.1156 209.751 16.0029C210.034 15.8902 210.336 15.8349 210.64 15.8402Z" fill="#1D4ED8"/>
<path d="M233 15.8399H249.1C249.352 15.838 249.599 15.9065 249.813 16.0375C250.028 16.1686 250.202 16.3571 250.315 16.5816C250.429 16.8062 250.477 17.058 250.455 17.3086C250.433 17.5592 250.341 17.7986 250.19 17.9999L238.51 33.7999H249.66C250.19 33.7999 250.699 34.0106 251.074 34.3857C251.449 34.7607 251.66 35.2694 251.66 35.7999C251.66 36.3303 251.449 36.839 251.074 37.2141C250.699 37.5892 250.19 37.7999 249.66 37.7999H233.39C233.139 37.7999 232.894 37.7301 232.68 37.5983C232.467 37.4665 232.295 37.2779 232.183 37.0536C232.07 36.8294 232.023 36.5783 232.045 36.3286C232.068 36.0789 232.16 35.8405 232.31 35.6399L244.12 19.8099H233C232.47 19.8099 231.961 19.5992 231.586 19.2241C231.211 18.849 231 18.3403 231 17.8099C231.008 17.2847 231.222 16.7836 231.596 16.415C231.971 16.0464 232.475 15.8398 233 15.8399Z" fill="#1D4ED8"/>
<path d="M65.0698 18.9983C62.6298 14.9983 58.4498 12.5683 53.1998 12.2483C52.3661 9.72201 50.6088 7.60394 48.2798 6.31829C45.7603 4.96381 42.8286 4.58979 40.0498 5.26829C37.5817 2.5794 34.2684 0.815159 30.6598 0.268288C26.7274 -0.347898 22.7006 0.205003 19.0798 1.85829C12.0798 5.04829 8.07977 11.2383 8.61977 18.0083C6.00583 18.7316 3.7212 20.334 2.15099 22.5455C0.580783 24.7569 -0.178982 27.442 -0.000234036 30.1483C0.299766 35.5683 4.09977 41.2683 10.7998 41.6683H21.5098H23.5898C23.8835 41.6696 24.1745 41.6129 24.4462 41.5014C24.7179 41.3899 24.9649 41.2259 25.1731 41.0187C25.3812 40.8115 25.5464 40.5652 25.6591 40.294C25.7718 40.0228 25.8298 39.732 25.8298 39.4383V30.8883L33.9998 40.8883C34.192 41.1216 34.4332 41.3097 34.7062 41.4393C34.9793 41.5689 35.2775 41.6368 35.5798 41.6383H35.6698C36.0628 41.6556 36.4522 41.5566 36.7893 41.3537C37.1263 41.1508 37.3961 40.853 37.5647 40.4976C37.7334 40.1421 37.7935 39.7448 37.7374 39.3554C37.6814 38.966 37.5118 38.6018 37.2498 38.3083L30.9998 30.6883L36.6098 24.6883C36.9003 24.4051 37.0979 24.0402 37.1762 23.642C37.2545 23.2439 37.2098 22.8314 37.0482 22.4592C36.8865 22.087 36.6155 21.7729 36.271 21.5584C35.9266 21.3439 35.5251 21.2392 35.1198 21.2583C34.8422 21.2564 34.5672 21.3123 34.3124 21.4225C34.0576 21.5327 33.8285 21.6947 33.6398 21.8983L25.7998 30.2283V13.4883C25.7998 12.9579 25.5891 12.4491 25.214 12.0741C24.8389 11.699 24.3302 11.4883 23.7998 11.4883H23.5598C23.0293 11.4883 22.5206 11.699 22.1456 12.0741C21.7705 12.4491 21.5598 12.9579 21.5598 13.4883V37.3583H10.9998C6.86977 37.0783 4.51977 33.4183 4.33977 29.9283C4.15977 26.5983 5.91977 22.7083 11.3898 21.8083C11.6777 21.7606 11.9531 21.6551 12.1991 21.498C12.4452 21.341 12.6568 21.1357 12.8213 20.8945C12.9858 20.6534 13.0997 20.3814 13.1562 20.095C13.2126 19.8087 13.2104 19.5138 13.1498 19.2283C11.7598 12.5283 16.2198 7.89829 20.8598 5.79829C26.1598 3.40829 33.3898 3.48829 37.5898 9.06829C37.8758 9.44702 38.2781 9.72154 38.7351 9.84978C39.192 9.97802 39.6784 9.9529 40.1198 9.77829C41.0977 9.39438 42.1466 9.22516 43.1957 9.2821C44.2447 9.33904 45.2692 9.6208 46.1998 10.1083C47.0534 10.5954 47.7856 11.2696 48.3416 12.0801C48.8975 12.8906 49.2627 13.8165 49.4098 14.7883C49.5063 15.2902 49.7768 15.742 50.1738 16.064C50.5708 16.386 51.0687 16.5575 51.5798 16.5483C57.2598 16.4183 60.0298 19.0383 61.3598 21.2583C62.3162 22.9661 62.8185 24.8908 62.8185 26.8483C62.8185 28.8057 62.3162 30.7304 61.3598 32.4383C60.4825 33.9931 59.1927 35.2754 57.6328 36.1435C56.0729 37.0117 54.3035 37.4321 52.5198 37.3583H42.9998C42.4485 37.3479 41.9124 37.5393 41.4925 37.8966C41.0726 38.254 40.7977 38.7525 40.7198 39.2983C40.689 39.6003 40.7219 39.9055 40.8165 40.194C40.911 40.4826 41.0651 40.748 41.2687 40.9733C41.4722 41.1985 41.7208 41.3786 41.9983 41.5017C42.2759 41.6249 42.5761 41.6885 42.8798 41.6883H52.5198C55.0683 41.7628 57.5889 41.14 59.8094 39.887C62.0299 38.634 63.8661 36.7984 65.1198 34.5783C66.4718 32.2028 67.1786 29.5149 67.1698 26.7816C67.161 24.0484 66.437 21.365 65.0698 18.9983Z" fill="#1D4ED8"/>
</g>
<defs>
<clipPath id="clip0_5314_566561">
<rect width="251.67" height="41.69" fill="white"/>
</clipPath>
</defs>
</svg>
