<?xml version="1.0" encoding="UTF-8" standalone="no"?>
<svg
   viewBox="0 0 32 32"
   version="1.1"
   id="svg1008"
   sodipodi:docname="kumuluz-iconx32.svg"
   width="32"
   height="32"
   inkscape:version="1.1.1 (3bf5ae0d25, 2021-09-20)"
   xmlns:inkscape="http://www.inkscape.org/namespaces/inkscape"
   xmlns:sodipodi="http://sodipodi.sourceforge.net/DTD/sodipodi-0.dtd"
   xmlns="http://www.w3.org/2000/svg"
   xmlns:svg="http://www.w3.org/2000/svg"
   xmlns:rdf="http://www.w3.org/1999/02/22-rdf-syntax-ns#"
   xmlns:cc="http://creativecommons.org/ns#"
   xmlns:dc="http://purl.org/dc/elements/1.1/">
  <sodipodi:namedview
     id="namedview1010"
     pagecolor="#ffffff"
     bordercolor="#666666"
     borderopacity="1.0"
     inkscape:pageshadow="2"
     inkscape:pageopacity="0.0"
     inkscape:pagecheckerboard="0"
     showgrid="false"
     inkscape:zoom="13.329021"
     inkscape:cx="12.003883"
     inkscape:cy="17.518166"
     inkscape:window-width="1920"
     inkscape:window-height="1017"
     inkscape:window-x="1912"
     inkscape:window-y="-8"
     inkscape:window-maximized="1"
     inkscape:current-layer="svg1008"
     width="150px" />
  <defs
     id="defs986">
    <style
       id="style984">.cls-1{fill:#254a99;}</style>
  </defs>
  <title
     id="title988">Asset 1</title>
  <g
     id="Layer_2"
     data-name="Layer 2"
     transform="matrix(0.50240751,0,0,0.58422414,-0.06416188,-2.709873)">
    <g
       id="Layer_1-2"
       data-name="Layer 1">
      <path
         class="cls-1"
         d="m 61.798228,30.348529 c -2.31033,-3.604547 -6.268191,-5.79431 -11.239189,-6.082673 A 9.9893381,9.5069937 0 0 0 45.900505,18.922114 10.9646,10.435164 0 0 0 38.107874,17.975921 15.149707,14.418189 0 0 0 29.216889,13.470236 19.23066,18.30209 0 0 0 18.252288,14.903044 C 11.624291,17.777671 7.8368644,23.355708 8.3481668,29.456404 A 11.163441,10.624404 0 0 0 0.18626224,40.396205 C 0.47031931,45.280367 4.0683747,50.416846 10.412314,50.777302 h 10.140837 1.969462 a 2.1114905,2.0095352 0 0 0 2.120958,-2.009536 v -7.704719 l 7.73582,9.011368 a 1.9505248,1.8563419 0 0 0 1.496033,0.675852 h 0.08522 a 1.8937134,1.8022737 0 0 0 1.496032,-3.000785 l -5.917854,-6.866663 5.311867,-5.406821 A 1.8937134,1.8022737 0 0 0 33.43987,32.385099 v 0 a 1.8937134,1.8022737 0 0 0 -1.401347,0.576727 l -7.423358,7.50647 V 25.383266 A 1.8937134,1.8022737 0 0 0 22.721448,23.580991 H 22.494203 A 1.8937134,1.8022737 0 0 0 20.60049,25.383266 V 46.893402 H 10.601686 C 6.6911678,46.641084 4.4660546,43.342923 4.2956203,40.197956 4.1251862,37.19717 5.7916539,33.691747 10.97096,32.880725 v 0 a 2.0452104,1.9464556 0 0 0 1.666468,-2.324934 v 0 c -1.316131,-6.037617 2.90685,-10.20988 7.300265,-12.102268 5.01834,-2.153717 11.864115,-2.081626 15.840913,2.946718 v 0 a 2.0546791,1.9554669 0 0 0 2.395548,0.639807 v 0 a 6.9404598,6.6053331 0 0 1 5.756888,0.297375 6.1640371,5.8664008 0 0 1 3.03941,4.217321 v 0 a 2.0546791,1.9554669 0 0 0 2.054679,1.586 v 0 c 5.378147,-0.117148 8.00094,2.243831 9.260259,4.244355 a 10.832041,10.309006 0 0 1 0,10.074709 9.1750415,8.732016 0 0 1 -8.370214,4.433594 h -9.014075 a 2.1398961,2.0365693 0 0 0 -2.158833,1.748204 2.0546791,1.9554669 0 0 0 2.04521,2.153719 h 9.127698 a 13.255994,12.615916 0 0 0 11.930395,-6.407084 14.827776,14.111803 0 0 0 -0.04734,-14.039712 z"
         id="path1004"
         style="stroke-width:0.923713" />
    </g>
  </g>
  <metadata
     id="metadata825">
    <rdf:RDF>
      <cc:Work
         rdf:about="">
        <dc:title>Asset 1</dc:title>
      </cc:Work>
    </rdf:RDF>
  </metadata>
</svg>
