<svg id="Layer_1" data-name="Layer 1" xmlns="http://www.w3.org/2000/svg" viewBox="0 0 875.93 374.04"><defs><style>.cls-1{fill:#f1f2f2;}.cls-2{fill:#939598;}.cls-3{fill:#bcbec0;}.cls-4{fill:#5dc2ef;}.cls-5{fill:#fff;}.cls-6{fill:#ec6b6b;}</style></defs><title>Artboard 42</title><rect class="cls-1" x="437.03" y="100.44" width="135" height="108.98"/><path class="cls-2" d="M527.5,182.22H487.82A18.14,18.14,0,0,1,486.56,146a19.6,19.6,0,0,1,37.72-6.14,12,12,0,0,1,11.78,14.9,15.08,15.08,0,0,1-8.56,27.47Zm-21.37-52a17,17,0,0,0-17,17,1.3,1.3,0,0,1-1.3,1.3,15.54,15.54,0,0,0,0,31.07H527.5a12.48,12.48,0,0,0,6.37-23.19,1.3,1.3,0,0,1-.56-1.54,9.38,9.38,0,0,0-9.78-12.4,1.29,1.29,0,0,1-1.36-.86A17,17,0,0,0,506.13,130.24Z"/><path class="cls-3" d="M516.63,158.63h-9.2v-9.2a1.3,1.3,0,1,0-2.6,0v9.2h-9.2a1.3,1.3,0,0,0,0,2.6h9.2v9.2a1.3,1.3,0,1,0,2.6,0v-9.2h9.2a1.3,1.3,0,0,0,0-2.6Z"/><rect class="cls-1" x="8.13" y="100.44" width="135" height="108.98"/><path class="cls-3" d="M77,175.29H55.27a1.36,1.36,0,0,1-1.36-1.36V157.64a1.36,1.36,0,0,1,1.36-1.36H77a1.36,1.36,0,0,1,1.36,1.36v16.29A1.36,1.36,0,0,1,77,175.29Zm-20.37-2.71h19V159h-19Z"/><path class="cls-3" d="M101.43,147.69a1.35,1.35,0,0,0-1.36,1.35v31.68H97.36V157.64A1.36,1.36,0,0,0,96,156.28H82.42a1.36,1.36,0,0,0-1.36,1.36v23.08H51.19V149a1.36,1.36,0,1,0-2.71,0v33.09a1.36,1.36,0,0,0,1.36,1.36h51.59a1.36,1.36,0,0,0,1.36-1.36V149A1.35,1.35,0,0,0,101.43,147.69Zm-17.65,33V159H94.64v21.72Z"/><path class="cls-2" d="M108.19,138.36v0a1.43,1.43,0,0,0-.09-.27l0,0-5.43-10.87a1.36,1.36,0,0,0-1.21-.75H49.84a1.36,1.36,0,0,0-1.22.75L43.19,138v0c0,.09-.07.18-.1.27v0a1.24,1.24,0,0,0,0,.27v2.72a9.51,9.51,0,0,0,9.5,9.5,8.24,8.24,0,0,0,5.23-2,13.07,13.07,0,0,0,9.71,4.77,12.21,12.21,0,0,0,8.14-3.13,12.24,12.24,0,0,0,8.15,3.13,13.09,13.09,0,0,0,9.71-4.77,8.06,8.06,0,0,0,5.22,2,9.52,9.52,0,0,0,9.51-9.5v-2.72A1.24,1.24,0,0,0,108.19,138.36Zm-3.53-1.08H94.34l-2-8.15h8.28Zm-30.39-8.15v8.15H59.72l2-8.15Zm2.72,0H89.51l2,8.15H77Zm-26.31,0H59l-2,8.15H46.6Zm-4.92,12.22V140H56.63v6.21a5.9,5.9,0,0,1-4.08,1.94A6.8,6.8,0,0,1,45.76,141.35Zm21.73,9.5a10.3,10.3,0,0,1-8.15-4.51V140H74.27v8A9.47,9.47,0,0,1,67.49,150.85Zm16.29,0A9.51,9.51,0,0,1,77,148v-8H91.93v6.35A10.3,10.3,0,0,1,83.78,150.85Zm21.72-9.5a6.8,6.8,0,0,1-6.79,6.79,5.9,5.9,0,0,1-4.07-1.94V140H105.5Z"/><path class="cls-3" d="M90.57,169.86a1.36,1.36,0,1,0,1.36,1.36,1.36,1.36,0,0,0-1.36-1.36Z"/><path class="cls-2" d="M43.41,200.25v-4.12L40.78,192a.73.73,0,0,1-.13-.29c0-.17.25-.25.76-.25h.41c.37,0,.6.08.7.23l1.78,2.93,1.8-2.94c.1-.15.34-.22.71-.22h.34c.48,0,.72.08.72.25a.59.59,0,0,1-.12.29l-2.64,4.15v4.08c0,.25-.23.38-.69.38H44.1C43.64,200.63,43.41,200.5,43.41,200.25Z"/><path class="cls-2" d="M49.6,199.5a6.1,6.1,0,0,1,0-6.9,4.5,4.5,0,0,1,6.1,0A5,5,0,0,1,56.76,196a5,5,0,0,1-1.06,3.46,4.48,4.48,0,0,1-6.1,0Zm4.8-1.08a5,5,0,0,0,0-4.74,2.32,2.32,0,0,0-3.52,0,3.89,3.89,0,0,0-.61,2.36,4,4,0,0,0,.61,2.38,2.29,2.29,0,0,0,3.51,0Z"/><path class="cls-2" d="M59.29,199.88a2.82,2.82,0,0,1-1-2.28v-5.74c0-.26.23-.38.69-.38h.33c.45,0,.68.12.68.38v5.68a1.56,1.56,0,0,0,.56,1.23,2.41,2.41,0,0,0,2.87,0,1.53,1.53,0,0,0,.57-1.22v-5.68c0-.26.22-.38.68-.38H65c.46,0,.69.12.69.38v5.74a2.83,2.83,0,0,1-1,2.28,5,5,0,0,1-5.46,0Z"/><path class="cls-2" d="M67.68,200.25V192a.5.5,0,0,1,.11-.37.46.46,0,0,1,.36-.12h2.41a4,4,0,0,1,2.42.6,2.4,2.4,0,0,1,.38,3.1,2.53,2.53,0,0,1-1.11.82v0a1.16,1.16,0,0,1,.55.46,4.24,4.24,0,0,1,.47.88l1.1,2.75a1.24,1.24,0,0,1,.06.22c0,.17-.24.25-.71.25h-.39c-.38,0-.6-.08-.67-.25l-1-2.54a1.63,1.63,0,0,0-.55-.75,1.87,1.87,0,0,0-1-.2h-.74v3.36c0,.25-.23.38-.69.38h-.32C67.91,200.63,67.68,200.5,67.68,200.25Zm3.1-4.83a1.14,1.14,0,0,0,.86-.39,1.22,1.22,0,0,0,.37-.9,1.09,1.09,0,0,0-.35-.86,1.41,1.41,0,0,0-1-.31H69.38v2.46Z"/><path class="cls-2" d="M79.44,200.51a3.21,3.21,0,0,1-1.06-.45c-.22-.17-.33-.31-.33-.44a1.19,1.19,0,0,1,.26-.62c.18-.25.32-.37.43-.37a1.09,1.09,0,0,1,.33.14,5.38,5.38,0,0,0,.79.34,2.77,2.77,0,0,0,.91.13,1.62,1.62,0,0,0,1-.28,1,1,0,0,0,.4-.84.92.92,0,0,0-.2-.59,2,2,0,0,0-.5-.4,9,9,0,0,0-.84-.39l-.45-.19a5.41,5.41,0,0,1-1-.55,2.37,2.37,0,0,1-.67-.79,2.72,2.72,0,0,1-.26-1.25,2.41,2.41,0,0,1,.41-1.4,2.54,2.54,0,0,1,1.1-.86,3.91,3.91,0,0,1,1.51-.29,5.22,5.22,0,0,1,1.13.13,2.62,2.62,0,0,1,.85.35.52.52,0,0,1,.27.39,1.26,1.26,0,0,1-.22.61c-.15.25-.28.37-.39.37a.5.5,0,0,1-.21-.07l-.22-.1a2.78,2.78,0,0,0-1.11-.22,1.56,1.56,0,0,0-1,.28.89.89,0,0,0-.33.71,1,1,0,0,0,.19.62,1.5,1.5,0,0,0,.48.38c.2.09.48.22.85.36a9.36,9.36,0,0,1,1.22.59,2.56,2.56,0,0,1,.83.81A2.41,2.41,0,0,1,83.9,198a2.48,2.48,0,0,1-.83,2,3.14,3.14,0,0,1-2.08.69A6,6,0,0,1,79.44,200.51Z"/><path class="cls-2" d="M85.28,200.25v-8.39c0-.26.23-.38.69-.38h.34c.46,0,.69.12.69.38v3.36h3.92v-3.36c0-.26.23-.38.69-.38H92c.46,0,.69.12.69.38v8.39c0,.25-.23.38-.69.38h-.34c-.46,0-.69-.13-.69-.38v-3.56H87v3.56c0,.25-.23.38-.69.38H86C85.51,200.63,85.28,200.5,85.28,200.25Z"/><path class="cls-2" d="M95.43,199.5a6.14,6.14,0,0,1,0-6.9,4.52,4.52,0,0,1,6.11,0A5,5,0,0,1,102.6,196a5.1,5.1,0,0,1-1.06,3.46,4.49,4.49,0,0,1-6.11,0Zm4.81-1.08a4,4,0,0,0,.6-2.38,3.89,3.89,0,0,0-.6-2.36,2.31,2.31,0,0,0-3.51,0,3.82,3.82,0,0,0-.61,2.36,3.93,3.93,0,0,0,.61,2.38,2.29,2.29,0,0,0,3.51,0Z"/><path class="cls-2" d="M104.37,200.54a.31.31,0,0,1-.16-.29V192a.5.5,0,0,1,.11-.37.46.46,0,0,1,.36-.12h2.7a3.91,3.91,0,0,1,2.11.58,2.37,2.37,0,0,1,.91,2.17,2.64,2.64,0,0,1-.53,1.74,2.59,2.59,0,0,1-1.18.84,3.93,3.93,0,0,1-1.18.21h-1.6v3.21c0,.25-.23.38-.69.38h-.32A1.15,1.15,0,0,1,104.37,200.54Zm3-5a1.42,1.42,0,0,0,.89-.29,1.21,1.21,0,0,0,.39-1,1.13,1.13,0,0,0-.4-1,1.62,1.62,0,0,0-1-.29h-1.39v2.61Z"/><path class="cls-3" d="M677.7,141.61,676.29,143l8.88,8.88H603.58a5.8,5.8,0,1,0,0,2H685.2l-8.91,8.92,1.41,1.41L689,152.93Z"/><path class="cls-3" d="M413.23,141.61,411.82,143l8.88,8.88H166.49a5.8,5.8,0,0,0-5.71-4.8h0a5.82,5.82,0,1,0,0,11.63h0a5.81,5.81,0,0,0,5.72-4.83H420.74l-8.92,8.92,1.41,1.41,11.32-11.31Z"/><rect class="cls-4" x="211.13" y="128.24" width="160" height="49.38"/><path class="cls-5" d="M248.12,157.24a5.07,5.07,0,0,1-1-3.52c0-3.08,1.44-4.63,4.31-4.63a6.27,6.27,0,0,1,1.28.14,3.77,3.77,0,0,1,1,.34c.22.13.32.26.32.39a1,1,0,0,1-.12.41,2,2,0,0,1-.29.45.42.42,0,0,1-.29.2l-.31-.13a3.54,3.54,0,0,0-.68-.24,3.93,3.93,0,0,0-1-.1,2.27,2.27,0,0,0-1.9.78,3.85,3.85,0,0,0-.62,2.4,3.89,3.89,0,0,0,.62,2.4,2.24,2.24,0,0,0,1.88.79,3.65,3.65,0,0,0,1-.13,6.1,6.1,0,0,0,.84-.33.75.75,0,0,1,.29-.1.4.4,0,0,1,.29.19,1.8,1.8,0,0,1,.25.43,1.25,1.25,0,0,1,.11.35c0,.2-.15.39-.45.55a3.27,3.27,0,0,1-1.07.36,6.59,6.59,0,0,1-1.3.13A4.14,4.14,0,0,1,248.12,157.24Z"/><path class="cls-5" d="M255.52,157.93v-8.27a.53.53,0,0,1,.11-.36.47.47,0,0,1,.36-.12h2.42a4,4,0,0,1,2.41.6,2.37,2.37,0,0,1,.38,3.1,2.5,2.5,0,0,1-1.1.82v.05a1.19,1.19,0,0,1,.54.46,3.81,3.81,0,0,1,.47.88l1.11,2.75a2.11,2.11,0,0,1,0,.22c0,.17-.24.25-.7.25h-.39c-.38,0-.61-.08-.68-.25l-1-2.55a1.66,1.66,0,0,0-.56-.74,1.86,1.86,0,0,0-1-.2h-.74v3.36c0,.25-.24.38-.69.38h-.33C255.75,158.31,255.52,158.18,255.52,157.93Zm3.11-4.83a1.15,1.15,0,0,0,.86-.39,1.25,1.25,0,0,0,.36-.9,1.09,1.09,0,0,0-.35-.86,1.37,1.37,0,0,0-1-.31h-1.31v2.46Z"/><path class="cls-5" d="M263.62,158.17a.5.5,0,0,1-.12-.37v-8.14a.5.5,0,0,1,.12-.37.53.53,0,0,1,.36-.11h4.55a.31.31,0,0,1,.27.13.79.79,0,0,1,.09.43v.34a.79.79,0,0,1-.09.43.29.29,0,0,1-.27.13h-3.32v2.26h3a.32.32,0,0,1,.27.13.91.91,0,0,1,.08.43v.34a.91.91,0,0,1-.08.43.32.32,0,0,1-.27.13h-3v2.47h3.34a.27.27,0,0,1,.26.13.76.76,0,0,1,.09.43v.33a.76.76,0,0,1-.09.43.27.27,0,0,1-.26.13H264A.53.53,0,0,1,263.62,158.17Z"/><path class="cls-5" d="M269.57,158.05a1,1,0,0,1,.06-.22l2.93-8.42c.06-.17.28-.25.67-.25h.57c.38,0,.6.08.66.25l2.94,8.42a.69.69,0,0,1,0,.22c0,.17-.21.26-.62.26h-.41c-.38,0-.6-.08-.66-.25l-.6-1.78h-3.33l-.59,1.78c-.07.17-.26.25-.58.25h-.36C269.81,158.31,269.57,158.22,269.57,158.05Zm5.09-3.22-1-2.86a4.54,4.54,0,0,1-.18-.81h-.06c0,.05,0,.16-.06.34a4.49,4.49,0,0,1-.13.47l-1,2.86Z"/><path class="cls-5" d="M279.69,157.93v-7.29h-2.21a.3.3,0,0,1-.27-.13.91.91,0,0,1-.08-.43v-.34a.91.91,0,0,1,.08-.43.32.32,0,0,1,.27-.13h6.12a.32.32,0,0,1,.27.13.91.91,0,0,1,.08.43v.34a.91.91,0,0,1-.08.43.3.3,0,0,1-.27.13h-2.2v7.29c0,.25-.23.38-.68.38h-.34C279.92,158.31,279.69,158.18,279.69,157.93Z"/><path class="cls-5" d="M285.3,158.17a.54.54,0,0,1-.11-.37v-8.14a.41.41,0,0,1,.48-.48h4.55a.32.32,0,0,1,.27.13.91.91,0,0,1,.08.43v.34a.91.91,0,0,1-.08.43.3.3,0,0,1-.27.13h-3.33v2.26h3a.31.31,0,0,1,.27.13.8.8,0,0,1,.08.43v.34a.8.8,0,0,1-.08.43.31.31,0,0,1-.27.13h-3v2.47h3.34a.3.3,0,0,1,.27.13.88.88,0,0,1,.08.43v.33a.88.88,0,0,1-.08.43.3.3,0,0,1-.27.13h-4.56A.54.54,0,0,1,285.3,158.17Z"/><path class="cls-5" d="M296,157.18a6.1,6.1,0,0,1,0-6.9,4.5,4.5,0,0,1,6.1,0,5,5,0,0,1,1.06,3.44,5,5,0,0,1-1.06,3.46,4.5,4.5,0,0,1-6.1,0Zm4.8-1.08a5,5,0,0,0,0-4.75,2.06,2.06,0,0,0-1.76-.8,2.09,2.09,0,0,0-1.76.8,4,4,0,0,0-.6,2.37,4,4,0,0,0,.6,2.38,2.05,2.05,0,0,0,1.76.82A2,2,0,0,0,300.83,156.1Z"/><path class="cls-5" d="M304.86,157.93v-8.27a.49.49,0,0,1,.11-.36.45.45,0,0,1,.35-.12h2.42a4,4,0,0,1,2.41.6,2.11,2.11,0,0,1,.79,1.8,2.14,2.14,0,0,1-.4,1.3,2.53,2.53,0,0,1-1.11.82v.05a1.26,1.26,0,0,1,.55.46,4.24,4.24,0,0,1,.47.88l1.1,2.75a.89.89,0,0,1,.05.22c0,.17-.23.25-.7.25h-.39c-.38,0-.61-.08-.68-.25l-1-2.55a1.72,1.72,0,0,0-.55-.74,1.9,1.9,0,0,0-1-.2h-.74v3.36c0,.25-.23.38-.69.38h-.33C305.09,158.31,304.86,158.18,304.86,157.93Zm3.1-4.83a1.14,1.14,0,0,0,.86-.39,1.26,1.26,0,0,0,.37-.9,1.06,1.06,0,0,0-.36-.86,1.37,1.37,0,0,0-1-.31h-1.31v2.46Z"/><path class="cls-5" d="M313,158.17a.54.54,0,0,1-.11-.37v-8.14a.41.41,0,0,1,.48-.48h2.73a4,4,0,0,1,3,1.15,5.86,5.86,0,0,1,0,6.81,4,4,0,0,1-3,1.14h-2.73A.54.54,0,0,1,313,158.17Zm3.06-1.34a2.14,2.14,0,0,0,1.76-.78,3.59,3.59,0,0,0,.63-2.32,3.63,3.63,0,0,0-.63-2.32,2.16,2.16,0,0,0-1.76-.77h-1.46v6.19Z"/><path class="cls-5" d="M322,158.17a.5.5,0,0,1-.12-.37v-8.14a.5.5,0,0,1,.12-.37.53.53,0,0,1,.36-.11h4.55a.31.31,0,0,1,.27.13.8.8,0,0,1,.08.43v.34a.8.8,0,0,1-.08.43.29.29,0,0,1-.27.13h-3.32v2.26h3a.32.32,0,0,1,.27.13.91.91,0,0,1,.08.43v.34a.91.91,0,0,1-.08.43.32.32,0,0,1-.27.13h-3v2.47h3.34a.27.27,0,0,1,.26.13.76.76,0,0,1,.09.43v.33a.76.76,0,0,1-.09.43.27.27,0,0,1-.26.13h-4.57A.53.53,0,0,1,322,158.17Z"/><path class="cls-5" d="M328.92,157.93v-8.27a.49.49,0,0,1,.11-.36.46.46,0,0,1,.36-.12h2.41a4,4,0,0,1,2.42.6,2.4,2.4,0,0,1,.38,3.1,2.53,2.53,0,0,1-1.11.82v.05a1.16,1.16,0,0,1,.55.46,4.24,4.24,0,0,1,.47.88l1.1,2.75a1.24,1.24,0,0,1,.06.22c0,.17-.24.25-.71.25h-.39c-.38,0-.6-.08-.67-.25l-1-2.55a1.65,1.65,0,0,0-.55-.74,1.87,1.87,0,0,0-1-.2h-.74v3.36c0,.25-.23.38-.69.38h-.32C329.15,158.31,328.92,158.18,328.92,157.93ZM332,153.1a1.13,1.13,0,0,0,.85-.39,1.22,1.22,0,0,0,.37-.9,1.09,1.09,0,0,0-.35-.86,1.41,1.41,0,0,0-1-.31h-1.31v2.46Z"/><rect class="cls-4" x="707.8" y="127.93" width="160" height="50"/><path class="cls-5" d="M747,157.18a6.14,6.14,0,0,1,0-6.9,4.52,4.52,0,0,1,6.11,0,5,5,0,0,1,1,3.44,5.09,5.09,0,0,1-1,3.46,4.52,4.52,0,0,1-6.11,0Zm4.81-1.08a4,4,0,0,0,.6-2.38,4,4,0,0,0-.6-2.37,2.06,2.06,0,0,0-1.75-.8,2.09,2.09,0,0,0-1.77.8,4,4,0,0,0-.6,2.37,4,4,0,0,0,.6,2.38,2.3,2.3,0,0,0,3.52,0Z"/><path class="cls-5" d="M755.83,157.93v-8.27a.49.49,0,0,1,.11-.36.46.46,0,0,1,.36-.12h2.41a4,4,0,0,1,2.42.6,2.4,2.4,0,0,1,.38,3.1,2.53,2.53,0,0,1-1.11.82v.05a1.16,1.16,0,0,1,.55.46,4.24,4.24,0,0,1,.47.88l1.1,2.75a1.24,1.24,0,0,1,.06.22c0,.17-.24.25-.71.25h-.39c-.38,0-.6-.08-.67-.25l-1-2.55a1.65,1.65,0,0,0-.55-.74,1.87,1.87,0,0,0-1-.2h-.74v3.36c0,.25-.23.38-.69.38h-.32C756.06,158.31,755.83,158.18,755.83,157.93Zm3.11-4.83a1.13,1.13,0,0,0,.85-.39,1.22,1.22,0,0,0,.37-.9,1.09,1.09,0,0,0-.35-.86,1.41,1.41,0,0,0-1-.31h-1.31v2.46Z"/><path class="cls-5" d="M763.93,158.17a.5.5,0,0,1-.12-.37v-8.14a.5.5,0,0,1,.12-.37.53.53,0,0,1,.36-.11H767a4,4,0,0,1,3,1.15,5.86,5.86,0,0,1,0,6.81,4,4,0,0,1-3,1.14h-2.73A.53.53,0,0,1,763.93,158.17Zm3.05-1.34a2.13,2.13,0,0,0,1.76-.78,3.59,3.59,0,0,0,.63-2.32,3.63,3.63,0,0,0-.63-2.32,2.15,2.15,0,0,0-1.76-.77h-1.45v6.19Z"/><path class="cls-5" d="M773,158.17a.5.5,0,0,1-.11-.37v-8.14a.5.5,0,0,1,.11-.37.54.54,0,0,1,.37-.11h4.55a.29.29,0,0,1,.26.13.79.79,0,0,1,.09.43v.34a.79.79,0,0,1-.09.43.27.27,0,0,1-.26.13h-3.33v2.26h3a.32.32,0,0,1,.27.13.91.91,0,0,1,.08.43v.34a.91.91,0,0,1-.08.43.32.32,0,0,1-.27.13h-3v2.47h3.34a.3.3,0,0,1,.27.13.88.88,0,0,1,.08.43v.33a.88.88,0,0,1-.08.43.3.3,0,0,1-.27.13h-4.56A.54.54,0,0,1,773,158.17Z"/><path class="cls-5" d="M779.89,157.93v-8.27a.53.53,0,0,1,.11-.36.46.46,0,0,1,.36-.12h2.42a4,4,0,0,1,2.41.6,2.37,2.37,0,0,1,.38,3.1,2.5,2.5,0,0,1-1.1.82v.05a1.19,1.19,0,0,1,.54.46,3.81,3.81,0,0,1,.47.88l1.11,2.75a2.11,2.11,0,0,1,0,.22c0,.17-.24.25-.7.25h-.39c-.39,0-.61-.08-.68-.25l-1-2.55a1.66,1.66,0,0,0-.56-.74,1.87,1.87,0,0,0-1-.2h-.74v3.36c0,.25-.23.38-.68.38h-.33C780.12,158.31,779.89,158.18,779.89,157.93ZM783,153.1a1.15,1.15,0,0,0,.86-.39,1.25,1.25,0,0,0,.36-.9,1.09,1.09,0,0,0-.35-.86,1.39,1.39,0,0,0-1-.31h-1.32v2.46Z"/><path class="cls-5" d="M793,158.06l-2.87-8.42a.79.79,0,0,1,0-.22c0-.18.23-.26.7-.26h.32c.38,0,.61.1.68.31l2,6.08.13.54h0l.14-.54,2-6.08c.07-.21.29-.31.67-.31h.3c.47,0,.71.08.71.26a1.51,1.51,0,0,1,0,.22l-2.88,8.42c0,.17-.26.25-.65.25h-.58C793.23,158.31,793,158.23,793,158.06Z"/><path class="cls-5" d="M797.6,158.05a.8.8,0,0,1,0-.22l2.94-8.42c0-.17.27-.25.66-.25h.57c.38,0,.6.08.67.25l2.93,8.42a.69.69,0,0,1,0,.22c0,.17-.21.26-.62.26h-.41c-.38,0-.6-.08-.66-.25l-.6-1.78h-3.32l-.6,1.78c-.06.17-.25.25-.57.25h-.37C797.83,158.31,797.6,158.22,797.6,158.05Zm5.08-3.22-.95-2.86a4.54,4.54,0,0,1-.18-.81h0c0,.05,0,.16-.07.34a2.91,2.91,0,0,1-.13.47l-1,2.86Z"/><path class="cls-5" d="M806.71,158.17a.5.5,0,0,1-.12-.37v-8.27c0-.25.23-.37.69-.37h.33a1.13,1.13,0,0,1,.52.09.31.31,0,0,1,.17.28v7.3h3.08a.28.28,0,0,1,.26.13,1,1,0,0,1,.07.43v.33a.93.93,0,0,1-.07.43.28.28,0,0,1-.26.13h-4.31A.53.53,0,0,1,806.71,158.17Z"/><path class="cls-5" d="M812.78,157.93v-8.4c0-.25.23-.39.7-.39h.33c.46,0,.69.14.69.39v8.4q0,.39-.69.39h-.33C813,158.32,812.78,158.19,812.78,157.93Z"/><path class="cls-5" d="M816.68,158.17a.5.5,0,0,1-.12-.37v-8.14a.5.5,0,0,1,.12-.37.53.53,0,0,1,.36-.11h2.73a4,4,0,0,1,3,1.15,5.91,5.91,0,0,1,0,6.81,4,4,0,0,1-3,1.14H817A.53.53,0,0,1,816.68,158.17Zm3.06-1.34a2.14,2.14,0,0,0,1.76-.78,3.59,3.59,0,0,0,.63-2.32,3.63,3.63,0,0,0-.63-2.32,2.16,2.16,0,0,0-1.76-.77h-1.46v6.19Z"/><path class="cls-5" d="M826.39,155.4a.27.27,0,0,1-.13-.26,3,3,0,0,1,1-2l.3-.32a7.68,7.68,0,0,0,.67-.79,1,1,0,0,0,.2-.56c0-.63-.4-.94-1.19-.94a2.25,2.25,0,0,0-.61.08c-.19.06-.39.14-.61.23a.9.9,0,0,1-.29.11.41.41,0,0,1-.29-.18,1.91,1.91,0,0,1-.28-.4A.94.94,0,0,1,825,150q0-.45.75-.69a5.29,5.29,0,0,1,1.62-.25,3,3,0,0,1,2,.63,2,2,0,0,1,.74,1.63,2.11,2.11,0,0,1-.32,1.17,5.67,5.67,0,0,1-.9,1c-.42.38-.72.68-.91.89a1.45,1.45,0,0,0-.34.73.36.36,0,0,1-.17.26.93.93,0,0,1-.43.07h-.27A.77.77,0,0,1,826.39,155.4Zm-.32,2.53v-1.08q0-.36.69-.36h.35q.69,0,.69.36v1.08c0,.25-.23.38-.69.38h-.35C826.3,158.31,826.07,158.18,826.07,157.93Z"/><path class="cls-3" d="M512,226.44a5.82,5.82,0,1,0-6.82,5.72v57.07H92.28V228l8.89,8.9,1.42-1.42L91.28,224.16,80,235.47l1.42,1.42,8.9-8.9v63.24H507.13V232.16A5.81,5.81,0,0,0,512,226.44Z"/><rect class="cls-4" x="211.13" y="263.57" width="160" height="49.38"/><path class="cls-5" d="M228,293.13a5,5,0,0,1-1.07-3.46,5,5,0,0,1,1.07-3.44,4.52,4.52,0,0,1,6.1,0,6.16,6.16,0,0,1,0,6.91,4.5,4.5,0,0,1-6.1,0Zm4.8-1.08a4,4,0,0,0,.61-2.38,4,4,0,0,0-.6-2.37,2.34,2.34,0,0,0-3.52,0,4,4,0,0,0-.6,2.37,4,4,0,0,0,.6,2.38,2.31,2.31,0,0,0,3.51,0Z"/><path class="cls-5" d="M236.83,293.88v-8.27a.49.49,0,0,1,.12-.36.45.45,0,0,1,.35-.12h2.42a4,4,0,0,1,2.41.6,2.09,2.09,0,0,1,.79,1.79,2.16,2.16,0,0,1-.4,1.3,2.39,2.39,0,0,1-1.11.82v.05a1.34,1.34,0,0,1,.55.46,4,4,0,0,1,.46.88l1.11,2.76a1.65,1.65,0,0,1,.05.22c0,.16-.23.25-.7.25h-.39c-.38,0-.61-.09-.68-.25l-1-2.55a1.72,1.72,0,0,0-.55-.74,1.81,1.81,0,0,0-1-.21h-.74v3.37c0,.25-.23.38-.69.38h-.33C237.06,294.26,236.83,294.13,236.83,293.88Zm3.11-4.84a1.13,1.13,0,0,0,.86-.38,1.29,1.29,0,0,0,.36-.9,1.08,1.08,0,0,0-.35-.87,1.42,1.42,0,0,0-1-.3h-1.31V289Z"/><path class="cls-5" d="M244.93,294.11a.52.52,0,0,1-.11-.36v-8.14a.53.53,0,0,1,.11-.37.54.54,0,0,1,.37-.11H248a4,4,0,0,1,3,1.14,5.88,5.88,0,0,1,0,6.82,4,4,0,0,1-3,1.14H245.3A.5.5,0,0,1,244.93,294.11Zm3.06-1.34a2.13,2.13,0,0,0,1.76-.77,4.59,4.59,0,0,0,0-4.64,2.13,2.13,0,0,0-1.76-.77h-1.46v6.18Z"/><path class="cls-5" d="M254,294.11a.47.47,0,0,1-.12-.36v-8.14a.48.48,0,0,1,.12-.37.53.53,0,0,1,.36-.11h4.55a.3.3,0,0,1,.27.13.91.91,0,0,1,.08.43V286a.91.91,0,0,1-.08.43.32.32,0,0,1-.27.13h-3.33v2.26h3a.27.27,0,0,1,.26.13.79.79,0,0,1,.09.43v.34a.75.75,0,0,1-.09.42.27.27,0,0,1-.26.13h-3v2.47h3.35a.29.29,0,0,1,.26.13.79.79,0,0,1,.09.43v.34a.79.79,0,0,1-.09.43.27.27,0,0,1-.26.13h-4.57A.49.49,0,0,1,254,294.11Z"/><path class="cls-5" d="M260.9,293.88v-8.27a.49.49,0,0,1,.11-.36.45.45,0,0,1,.35-.12h2.42a3.94,3.94,0,0,1,2.41.6,2.38,2.38,0,0,1,.39,3.09,2.39,2.39,0,0,1-1.11.82v.05a1.28,1.28,0,0,1,.55.46,4.51,4.51,0,0,1,.47.88l1.1,2.76a.8.8,0,0,1,.05.22c0,.16-.23.25-.7.25h-.39c-.38,0-.6-.09-.67-.25l-1-2.55a1.65,1.65,0,0,0-.55-.74,1.79,1.79,0,0,0-1-.21h-.74v3.37c0,.25-.23.38-.69.38h-.32C261.13,294.26,260.9,294.13,260.9,293.88ZM264,289a1.13,1.13,0,0,0,.86-.38,1.3,1.3,0,0,0,.37-.9,1.08,1.08,0,0,0-.36-.87,1.42,1.42,0,0,0-1-.3H262.6V289Z"/><path class="cls-5" d="M271.91,293.88v-8.4c0-.25.23-.38.69-.38h.46a1.46,1.46,0,0,1,.47.07.56.56,0,0,1,.28.25l3.32,5.08a5.14,5.14,0,0,1,.46.78h.05c0-.2,0-.5,0-.89v-4.9c0-.25.23-.38.69-.38h.29c.46,0,.69.13.69.38v8.4c0,.25-.23.38-.69.38h-.42a1.24,1.24,0,0,1-.43-.07.61.61,0,0,1-.28-.23l-3.41-5.18a4.85,4.85,0,0,1-.45-.76h-.05c0,.2,0,.49,0,.88v5c0,.25-.23.38-.69.38h-.28C272.14,294.26,271.91,294.13,271.91,293.88Z"/><path class="cls-5" d="M282,293.13a5,5,0,0,1-1.07-3.46,5,5,0,0,1,1.07-3.44,4.52,4.52,0,0,1,6.1,0,6.16,6.16,0,0,1,0,6.91,4.5,4.5,0,0,1-6.1,0Zm4.8-1.08a5,5,0,0,0,0-4.75,2,2,0,0,0-1.76-.8,2.06,2.06,0,0,0-1.76.8,4,4,0,0,0-.6,2.37,4,4,0,0,0,.6,2.38,2.07,2.07,0,0,0,1.76.81A2,2,0,0,0,286.77,292.05Z"/><path class="cls-5" d="M292.49,293.88v-7.29h-2.21a.32.32,0,0,1-.27-.13.8.8,0,0,1-.08-.43v-.34a.8.8,0,0,1,.08-.43.3.3,0,0,1,.27-.13h6.12a.3.3,0,0,1,.27.13.91.91,0,0,1,.08.43V286a.91.91,0,0,1-.08.43.32.32,0,0,1-.27.13h-2.2v7.29c0,.25-.23.38-.69.38h-.33C292.72,294.26,292.49,294.13,292.49,293.88Z"/><path class="cls-5" d="M297.88,293.88v-8.4c0-.26.23-.39.7-.39h.33q.69,0,.69.39v8.4q0,.39-.69.39h-.33C298.11,294.27,297.88,294.14,297.88,293.88Z"/><path class="cls-5" d="M301.66,293.88v-8.27a.48.48,0,0,1,.12-.37.53.53,0,0,1,.36-.11h4.22a.27.27,0,0,1,.26.13.79.79,0,0,1,.09.43V286a.79.79,0,0,1-.09.43.29.29,0,0,1-.26.13h-3v2.26h2.84a.3.3,0,0,1,.27.13.79.79,0,0,1,.09.43v.34a.75.75,0,0,1-.09.42.3.3,0,0,1-.27.13h-2.84v3.58a.32.32,0,0,1-.17.29,1.1,1.1,0,0,1-.52.09h-.33C301.89,294.26,301.66,294.13,301.66,293.88Z"/><path class="cls-5" d="M308.1,293.88v-8.4c0-.26.23-.39.7-.39h.33c.45,0,.69.13.69.39v8.4c0,.26-.24.39-.69.39h-.33C308.33,294.27,308.1,294.14,308.1,293.88Z"/><path class="cls-5" d="M312.47,293.19a5.09,5.09,0,0,1-1-3.52q0-4.64,4.3-4.63a5.66,5.66,0,0,1,1.29.14,3.48,3.48,0,0,1,1,.34q.33.18.33.39a.94.94,0,0,1-.13.41,2,2,0,0,1-.28.45.43.43,0,0,1-.29.19,1.45,1.45,0,0,1-.32-.13,4.11,4.11,0,0,0-.68-.23,3.85,3.85,0,0,0-.95-.1,2.29,2.29,0,0,0-1.91.78,4.94,4.94,0,0,0,0,4.79,2.23,2.23,0,0,0,1.88.79,4,4,0,0,0,1-.12,5.76,5.76,0,0,0,.85-.33.72.72,0,0,1,.28-.1.39.39,0,0,1,.29.18,2.13,2.13,0,0,1,.26.44,1,1,0,0,1,.1.35c0,.2-.15.38-.44.55a4,4,0,0,1-1.08.36,6.51,6.51,0,0,1-1.3.13A4.17,4.17,0,0,1,312.47,293.19Z"/><path class="cls-5" d="M318.9,294a1.65,1.65,0,0,1,.05-.22l2.94-8.43c.05-.16.27-.25.66-.25h.58c.38,0,.6.09.66.25l2.94,8.43a1,1,0,0,1,0,.22c0,.17-.21.26-.63.26h-.4c-.38,0-.6-.09-.66-.25l-.6-1.78h-3.33l-.6,1.78c-.06.16-.25.25-.57.25h-.36C319.14,294.26,318.9,294.17,318.9,294Zm5.08-3.23-1-2.86a7.75,7.75,0,0,1-.18-.8h-.05l-.06.33a3.9,3.9,0,0,1-.13.47l-1,2.86Z"/><path class="cls-5" d="M329,293.88v-7.29h-2.21a.31.31,0,0,1-.27-.13.79.79,0,0,1-.09-.43v-.34a.79.79,0,0,1,.09-.43.29.29,0,0,1,.27-.13h6.12a.3.3,0,0,1,.27.13.91.91,0,0,1,.08.43V286a.91.91,0,0,1-.08.43.32.32,0,0,1-.27.13h-2.2v7.29c0,.25-.23.38-.69.38h-.34C329.24,294.26,329,294.13,329,293.88Z"/><path class="cls-5" d="M334.41,293.88v-8.4c0-.26.23-.39.7-.39h.33q.69,0,.69.39v8.4q0,.39-.69.39h-.33C334.64,294.27,334.41,294.14,334.41,293.88Z"/><path class="cls-5" d="M338.82,293.13a5,5,0,0,1-1.07-3.46,5,5,0,0,1,1.07-3.44,4.52,4.52,0,0,1,6.1,0,6.16,6.16,0,0,1,0,6.91,4.5,4.5,0,0,1-6.1,0Zm4.8-1.08a4,4,0,0,0,.61-2.38,4,4,0,0,0-.6-2.37,2.34,2.34,0,0,0-3.52,0,4,4,0,0,0-.6,2.37,4,4,0,0,0,.6,2.38,2.31,2.31,0,0,0,3.51,0Z"/><path class="cls-5" d="M347.61,293.88v-8.4c0-.25.22-.38.68-.38h.47a1.39,1.39,0,0,1,.46.07.52.52,0,0,1,.28.25l3.33,5.08a6.13,6.13,0,0,1,.46.78h0c0-.2,0-.5,0-.89v-4.9c0-.25.23-.38.69-.38h.29c.46,0,.69.13.69.38v8.4c0,.25-.23.38-.69.38h-.42a1.2,1.2,0,0,1-.43-.07.57.57,0,0,1-.28-.23l-3.41-5.18a5.92,5.92,0,0,1-.46-.76h-.05c0,.2,0,.49,0,.88v5c0,.25-.23.38-.69.38h-.29C347.83,294.26,347.61,294.13,347.61,293.88Z"/><path class="cls-3" d="M793.61,203.6a5.81,5.81,0,1,0-6.81,5.73V342.44H61.05V228l8.9,8.9,1.41-1.42L60.05,224.16,48.73,235.47l1.42,1.42,8.9-8.9V344.44H788.8V209.33A5.82,5.82,0,0,0,793.61,203.6Z"/><path class="cls-3" d="M788.8,96.72V29.6H74.63V86.18l-8.9-8.9-1.41,1.41L75.63,90,87,78.69l-1.42-1.41-8.9,8.9V31.6H786.8V96.72a5.81,5.81,0,1,0,2,0Z"/><rect class="cls-6" x="563.13" y="318.75" width="160" height="49.38"/><rect class="cls-4" x="563.13" y="5.91" width="160" height="49.38"/><path class="cls-5" d="M601.09,27.41a.31.31,0,0,1-.16-.28V18.86a.52.52,0,0,1,.11-.36.46.46,0,0,1,.36-.12h2.7a3.9,3.9,0,0,1,2.11.57,2.36,2.36,0,0,1,.91,2.17,2.6,2.6,0,0,1-.53,1.74,2.54,2.54,0,0,1-1.18.84,3.67,3.67,0,0,1-1.18.22h-1.6v3.21c0,.25-.23.37-.68.37h-.33A1.17,1.17,0,0,1,601.09,27.41Zm3-5a1.49,1.49,0,0,0,.9-.29,1.23,1.23,0,0,0,.39-1,1.15,1.15,0,0,0-.41-1,1.59,1.59,0,0,0-.94-.29h-1.4v2.62Z"/><path class="cls-5" d="M607.42,27.24s0-.09.05-.22l2.94-8.42c.05-.16.27-.25.66-.25h.57c.38,0,.6.09.67.25L615.24,27a.69.69,0,0,1,0,.22c0,.18-.21.26-.62.26h-.4c-.39,0-.61-.08-.67-.24l-.6-1.78h-3.32l-.6,1.78q-.09.24-.57.24h-.37C607.66,27.5,607.42,27.42,607.42,27.24ZM612.5,24l-1-2.86a4.54,4.54,0,0,1-.18-.81h0c0,.06,0,.17-.07.34a2.65,2.65,0,0,1-.13.47l-1,2.86Z"/><path class="cls-5" d="M618.12,27.13V23l-2.63-4.11a.59.59,0,0,1-.13-.3c0-.16.25-.25.75-.25h.42c.36,0,.6.08.7.24L619,21.51l1.8-2.94c.1-.14.34-.22.71-.22h.34c.48,0,.72.09.72.25a.58.58,0,0,1-.12.3l-2.64,4.15v4.08c0,.25-.23.37-.69.37h-.32C618.35,27.5,618.12,27.38,618.12,27.13Z"/><path class="cls-5" d="M627.44,25l-1.85-3.27a3.57,3.57,0,0,1-.3-.53h0c0,.15,0,.37,0,.67v5.29c0,.25-.23.37-.69.37h-.28c-.46,0-.69-.12-.69-.37v-8.4c0-.25.23-.38.69-.38h.61a.78.78,0,0,1,.73.31l2.26,4a3.29,3.29,0,0,1,.21.42,1.85,1.85,0,0,1,.21-.44l2.27-4a.75.75,0,0,1,.71-.31h.6c.46,0,.69.13.69.38v8.4c0,.25-.23.37-.69.37h-.28c-.46,0-.69-.12-.69-.37V21.86c0-.29,0-.51,0-.66h0a5,5,0,0,1-.3.53L628.74,25a.52.52,0,0,1-.44.22h-.42A.49.49,0,0,1,627.44,25Z"/><path class="cls-5" d="M634.76,27.36a.49.49,0,0,1-.12-.36V18.86a.48.48,0,0,1,.12-.37.52.52,0,0,1,.36-.11h4.55a.3.3,0,0,1,.27.13.91.91,0,0,1,.08.43v.34a.83.83,0,0,1-.08.42.3.3,0,0,1-.27.13h-3.33V22.1h3a.27.27,0,0,1,.26.13.76.76,0,0,1,.09.43V23a.76.76,0,0,1-.09.43.27.27,0,0,1-.26.13h-3V26h3.34a.32.32,0,0,1,.27.13.8.8,0,0,1,.08.43v.34a.8.8,0,0,1-.08.43.3.3,0,0,1-.27.13h-4.56A.47.47,0,0,1,634.76,27.36Z"/><path class="cls-5" d="M641.65,27.13v-8.4c0-.25.23-.38.68-.38h.47a1.17,1.17,0,0,1,.46.07.5.5,0,0,1,.28.24l3.33,5.09a5.14,5.14,0,0,1,.46.78l0,0c0-.19,0-.49,0-.88v-4.9c0-.25.23-.38.69-.38h.29c.46,0,.69.13.69.38v8.4c0,.25-.23.37-.69.37h-.42a1.23,1.23,0,0,1-.43-.06.61.61,0,0,1-.28-.23L643.79,22a4.5,4.5,0,0,1-.45-.77l-.06,0c0,.2,0,.49,0,.88v5c0,.25-.23.37-.69.37h-.29C641.88,27.5,641.65,27.38,641.65,27.13Z"/><path class="cls-5" d="M652.72,27.13v-7.3h-2.21a.3.3,0,0,1-.27-.13.83.83,0,0,1-.08-.42v-.34a.91.91,0,0,1,.08-.43.3.3,0,0,1,.27-.13h6.12a.29.29,0,0,1,.27.13.79.79,0,0,1,.09.43v.34a.73.73,0,0,1-.09.42.29.29,0,0,1-.27.13h-2.19v7.3c0,.25-.23.37-.69.37h-.34C653,27.5,652.72,27.38,652.72,27.13Z"/><path class="cls-5" d="M662.16,26.76a2.82,2.82,0,0,1-1-2.28V18.73c0-.25.23-.38.69-.38h.32c.46,0,.69.13.69.38v5.68a1.56,1.56,0,0,0,.56,1.23,2.11,2.11,0,0,0,1.43.47,2.16,2.16,0,0,0,1.44-.48,1.55,1.55,0,0,0,.56-1.22V18.73c0-.25.23-.38.69-.38h.31c.46,0,.69.13.69.38v5.75a2.82,2.82,0,0,1-1,2.28,5,5,0,0,1-5.46,0Z"/><path class="cls-5" d="M670.54,27.13V18.86a.47.47,0,0,1,.12-.36.45.45,0,0,1,.35-.12h2.42a4,4,0,0,1,2.41.6,2.09,2.09,0,0,1,.79,1.79,2.18,2.18,0,0,1-.4,1.3,2.46,2.46,0,0,1-1.11.82v.05a1.26,1.26,0,0,1,.55.46,3.81,3.81,0,0,1,.46.88L677.24,27a1.65,1.65,0,0,1,0,.22c0,.16-.23.24-.7.24h-.39c-.38,0-.61-.08-.68-.24l-1-2.55A1.66,1.66,0,0,0,674,24a1.81,1.81,0,0,0-1-.21h-.74v3.37c0,.25-.23.37-.69.37h-.33C670.77,27.5,670.54,27.38,670.54,27.13Zm3.11-4.84a1.16,1.16,0,0,0,.86-.38,1.29,1.29,0,0,0,.36-.91,1.05,1.05,0,0,0-.35-.86,1.42,1.42,0,0,0-1-.31h-1.31v2.46Z"/><path class="cls-5" d="M678.64,27.36a.53.53,0,0,1-.11-.36V18.73c0-.25.23-.38.69-.38h.32a1.17,1.17,0,0,1,.53.09.31.31,0,0,1,.16.29V26h3.08a.28.28,0,0,1,.26.14.89.89,0,0,1,.08.42v.34a.89.89,0,0,1-.08.42.28.28,0,0,1-.26.14H679A.5.5,0,0,1,678.64,27.36Z"/><path class="cls-5" d="M683.88,29a.22.22,0,0,1-.17-.2.71.71,0,0,1,0-.2l.07-.19a5,5,0,0,0,.46-2.21.46.46,0,0,1,.16-.38.86.86,0,0,1,.53-.14h.2a.85.85,0,0,1,.52.14.45.45,0,0,1,.17.36,3.46,3.46,0,0,1-.28,1.37,3.52,3.52,0,0,1-.69,1.09,1,1,0,0,1-.67.42A1,1,0,0,1,683.88,29Z"/><path class="cls-5" d="M607.14,42.37a5,5,0,0,1-1.06-3.45,5,5,0,0,1,1.06-3.44,4.53,4.53,0,0,1,6.11,0,5,5,0,0,1,1.06,3.45,5.07,5.07,0,0,1-1.06,3.45,4.49,4.49,0,0,1-6.11,0ZM612,41.29a4,4,0,0,0,.6-2.37,4,4,0,0,0-.6-2.37,2,2,0,0,0-1.75-.81,2.06,2.06,0,0,0-1.76.81,3.87,3.87,0,0,0-.61,2.37,3.87,3.87,0,0,0,.61,2.37,2.29,2.29,0,0,0,3.51,0Z"/><path class="cls-5" d="M617.66,43.13v-7.3h-2.21a.3.3,0,0,1-.27-.13.83.83,0,0,1-.08-.42v-.34a.91.91,0,0,1,.08-.43.3.3,0,0,1,.27-.13h6.12a.29.29,0,0,1,.27.13.79.79,0,0,1,.09.43v.34a.73.73,0,0,1-.09.42.29.29,0,0,1-.27.13h-2.19v7.3c0,.25-.23.37-.69.37h-.34C617.89,43.5,617.66,43.38,617.66,43.13Z"/><path class="cls-5" d="M623.16,43.13v-8.4c0-.25.23-.38.69-.38h.34c.46,0,.69.13.69.38V38.1h3.92V34.73c0-.25.23-.38.69-.38h.34c.46,0,.69.13.69.38v8.4c0,.25-.23.37-.69.37h-.34c-.46,0-.69-.12-.69-.37V39.57h-3.92v3.56c0,.25-.23.37-.69.37h-.34C623.39,43.5,623.16,43.38,623.16,43.13Z"/><path class="cls-5" d="M632.81,43.36a.49.49,0,0,1-.12-.36V34.86a.48.48,0,0,1,.12-.37.52.52,0,0,1,.36-.11h4.55a.3.3,0,0,1,.27.13.91.91,0,0,1,.08.43v.34a.83.83,0,0,1-.08.42.3.3,0,0,1-.27.13h-3.33V38.1h3a.27.27,0,0,1,.26.13.76.76,0,0,1,.09.43V39a.76.76,0,0,1-.09.43.27.27,0,0,1-.26.13h-3V42h3.34a.32.32,0,0,1,.27.13.8.8,0,0,1,.08.43v.34a.8.8,0,0,1-.08.43.3.3,0,0,1-.27.13h-4.56A.47.47,0,0,1,632.81,43.36Z"/><path class="cls-5" d="M639.74,43.13V34.86a.47.47,0,0,1,.11-.36.45.45,0,0,1,.35-.12h2.42A4,4,0,0,1,645,35a2.09,2.09,0,0,1,.79,1.79,2.18,2.18,0,0,1-.4,1.3,2.46,2.46,0,0,1-1.11.82v0a1.26,1.26,0,0,1,.55.46,3.81,3.81,0,0,1,.46.88L646.43,43a1.65,1.65,0,0,1,.05.22c0,.16-.23.24-.7.24h-.39c-.38,0-.61-.08-.68-.24l-1-2.55a1.66,1.66,0,0,0-.55-.74,1.81,1.81,0,0,0-1-.21h-.74v3.37c0,.25-.23.37-.69.37h-.33C640,43.5,639.74,43.38,639.74,43.13Zm3.1-4.84a1.16,1.16,0,0,0,.86-.38,1.29,1.29,0,0,0,.36-.91,1.05,1.05,0,0,0-.35-.86,1.42,1.42,0,0,0-1-.31h-1.31v2.46Z"/><path class="cls-5" d="M651,43.36a.53.53,0,0,1-.11-.36V34.86a.53.53,0,0,1,.11-.37.54.54,0,0,1,.37-.11h2.73a4,4,0,0,1,3,1.14,4.81,4.81,0,0,1,1.09,3.41,4.77,4.77,0,0,1-1.09,3.4,3.93,3.93,0,0,1-3,1.15h-2.73A.5.5,0,0,1,651,43.36ZM654,42a2.16,2.16,0,0,0,1.76-.77,3.63,3.63,0,0,0,.63-2.32,3.61,3.61,0,0,0-.63-2.32,2.14,2.14,0,0,0-1.76-.78h-1.46V42Z"/><path class="cls-5" d="M658.84,43.24a1.53,1.53,0,0,1,.06-.22l2.93-8.42c.06-.16.28-.25.67-.25h.57c.38,0,.6.09.66.25L666.67,43a.69.69,0,0,1,0,.22c0,.18-.21.26-.63.26h-.4q-.57,0-.66-.24l-.6-1.78h-3.33l-.6,1.78q-.09.24-.57.24h-.36C659.08,43.5,658.84,43.42,658.84,43.24ZM663.93,40,663,37.16a4.54,4.54,0,0,1-.18-.81h-.06c0,.06,0,.17-.06.34a3.9,3.9,0,0,1-.13.47l-1,2.86Z"/><path class="cls-5" d="M669,43.13v-7.3h-2.21a.3.3,0,0,1-.27-.13.74.74,0,0,1-.08-.42v-.34a.8.8,0,0,1,.08-.43.3.3,0,0,1,.27-.13h6.12a.3.3,0,0,1,.27.13.91.91,0,0,1,.08.43v.34a.83.83,0,0,1-.08.42.3.3,0,0,1-.27.13h-2.2v7.3c0,.25-.23.37-.68.37h-.34C669.19,43.5,669,43.38,669,43.13Z"/><path class="cls-5" d="M672.91,43.24s0-.09.05-.22l2.94-8.42c.05-.16.27-.25.66-.25h.58c.38,0,.6.09.66.25L680.74,43a1.15,1.15,0,0,1,0,.22c0,.18-.21.26-.63.26h-.4c-.38,0-.6-.08-.67-.24l-.59-1.78h-3.33l-.6,1.78q-.09.24-.57.24h-.37C673.15,43.5,672.91,43.42,672.91,43.24ZM678,40l-1-2.86a4.54,4.54,0,0,1-.18-.81h-.05c0,.06,0,.17-.07.34a2,2,0,0,1-.13.47l-1,2.86Z"/><path class="cls-5" d="M586.67,339.33a6.08,6.08,0,0,1,0-6.89,4.52,4.52,0,0,1,6.1,0,6.14,6.14,0,0,1,0,6.9,4.48,4.48,0,0,1-6.1,0Zm4.8-1.08a4.94,4.94,0,0,0,0-4.74,2,2,0,0,0-1.76-.81,2.07,2.07,0,0,0-1.76.81,3.91,3.91,0,0,0-.6,2.36,4,4,0,0,0,.6,2.38,2.05,2.05,0,0,0,1.76.82A2,2,0,0,0,591.47,338.25Z"/><path class="cls-5" d="M595.5,340.09v-8.27a.5.5,0,0,1,.11-.37.49.49,0,0,1,.35-.11h2.42a3.94,3.94,0,0,1,2.41.6,2.08,2.08,0,0,1,.79,1.79,2.12,2.12,0,0,1-.4,1.3,2.46,2.46,0,0,1-1.11.82v0a1.21,1.21,0,0,1,.55.46,4.24,4.24,0,0,1,.47.88l1.1,2.76a.8.8,0,0,1,0,.22c0,.16-.23.24-.7.24h-.39c-.38,0-.61-.08-.67-.24l-1-2.55a1.59,1.59,0,0,0-.55-.74,1.79,1.79,0,0,0-1-.21h-.74v3.37c0,.25-.23.37-.69.37h-.32C595.73,340.46,595.5,340.34,595.5,340.09Zm3.1-4.84a1.16,1.16,0,0,0,.86-.38,1.3,1.3,0,0,0,.37-.91,1.06,1.06,0,0,0-.36-.86,1.42,1.42,0,0,0-1-.31H597.2v2.46Z"/><path class="cls-5" d="M603.6,340.32a.49.49,0,0,1-.12-.36v-8.14a.48.48,0,0,1,.12-.37.46.46,0,0,1,.36-.11h2.73a4,4,0,0,1,3,1.14,5.86,5.86,0,0,1,0,6.81,3.93,3.93,0,0,1-3,1.15H604A.46.46,0,0,1,603.6,340.32Zm3-1.34a2.16,2.16,0,0,0,1.76-.77,4.59,4.59,0,0,0,0-4.64,2.14,2.14,0,0,0-1.76-.78h-1.46V339Z"/><path class="cls-5" d="M612.63,340.32a.49.49,0,0,1-.12-.36v-8.14a.41.41,0,0,1,.48-.48h4.55a.29.29,0,0,1,.27.13.76.76,0,0,1,.09.43v.33a.76.76,0,0,1-.09.43.29.29,0,0,1-.27.13h-3.32v2.27h3a.3.3,0,0,1,.27.13.86.86,0,0,1,.08.42V336a.88.88,0,0,1-.08.43.3.3,0,0,1-.27.13h-3V339h3.34a.29.29,0,0,1,.26.13.79.79,0,0,1,.09.43v.34a.79.79,0,0,1-.09.43.29.29,0,0,1-.26.13H613A.49.49,0,0,1,612.63,340.32Z"/><path class="cls-5" d="M619.56,340.09v-8.27a.54.54,0,0,1,.11-.37.5.5,0,0,1,.36-.11h2.42a4,4,0,0,1,2.41.6,2.39,2.39,0,0,1,.38,3.09,2.46,2.46,0,0,1-1.11.82v0a1.16,1.16,0,0,1,.55.46,4.24,4.24,0,0,1,.47.88l1.1,2.76a1,1,0,0,1,.06.22c0,.16-.24.24-.71.24h-.39c-.38,0-.6-.08-.67-.24l-1-2.55a1.59,1.59,0,0,0-.55-.74,1.77,1.77,0,0,0-1-.21h-.74v3.37c0,.25-.23.37-.69.37h-.32C619.79,340.46,619.56,340.34,619.56,340.09Zm3.11-4.84a1.16,1.16,0,0,0,.85-.38,1.26,1.26,0,0,0,.37-.91,1.09,1.09,0,0,0-.35-.86,1.46,1.46,0,0,0-1-.31h-1.31v2.46Z"/><path class="cls-5" d="M632.64,340.22l-2.88-8.43a1.31,1.31,0,0,1,0-.22c0-.17.24-.26.71-.26h.32c.38,0,.61.11.68.31l2,6.09.13.53h.05l.14-.53,2-6.09c.07-.2.29-.31.67-.31h.3c.47,0,.7.09.7.26a1.12,1.12,0,0,1,0,.22l-2.88,8.43c0,.16-.26.24-.65.24h-.58C632.9,340.46,632.68,340.38,632.64,340.22Z"/><path class="cls-5" d="M637.26,340.2a1.24,1.24,0,0,1,.06-.22l2.93-8.42c.06-.17.28-.25.67-.25h.57c.38,0,.6.08.66.25l2.94,8.42a.69.69,0,0,1,0,.22c0,.18-.21.26-.62.26h-.41q-.57,0-.66-.24l-.6-1.78h-3.33l-.59,1.78c-.06.16-.26.24-.58.24H638C637.5,340.46,637.26,340.38,637.26,340.2Zm5.09-3.22-1-2.86a4.54,4.54,0,0,1-.18-.81h-.06c0,.06,0,.17-.06.34a2.65,2.65,0,0,1-.13.47L640,337Z"/><path class="cls-5" d="M646.38,340.32a.49.49,0,0,1-.12-.36v-8.27c0-.25.23-.38.69-.38h.32a1.15,1.15,0,0,1,.53.09.31.31,0,0,1,.16.29V339H651a.27.27,0,0,1,.26.14.78.78,0,0,1,.08.42v.34a.78.78,0,0,1-.08.42.27.27,0,0,1-.26.14h-4.3A.49.49,0,0,1,646.38,340.32Z"/><path class="cls-5" d="M652.45,340.09v-8.4c0-.26.23-.39.7-.39h.33c.45,0,.68.13.68.39v8.4c0,.26-.23.39-.68.39h-.33C652.68,340.48,652.45,340.35,652.45,340.09Z"/><path class="cls-5" d="M656.35,340.32a.49.49,0,0,1-.12-.36v-8.14a.41.41,0,0,1,.48-.48h2.73a4,4,0,0,1,3,1.14,5.86,5.86,0,0,1,0,6.81,3.93,3.93,0,0,1-3,1.15h-2.73A.49.49,0,0,1,656.35,340.32Zm3-1.34a2.15,2.15,0,0,0,1.76-.77,4.59,4.59,0,0,0,0-4.64,2.13,2.13,0,0,0-1.76-.78H658V339Z"/><path class="cls-5" d="M664.24,340.2a2.11,2.11,0,0,1,0-.22l2.94-8.42c0-.17.27-.25.66-.25h.57c.39,0,.61.08.67.25l2.94,8.42a1,1,0,0,1,0,.22c0,.18-.2.26-.62.26h-.4c-.38,0-.61-.08-.67-.24l-.59-1.78h-3.33l-.6,1.78q-.09.24-.57.24H665C664.48,340.46,664.24,340.38,664.24,340.2Zm5.08-3.22-1-2.86a4.54,4.54,0,0,1-.18-.81h-.05c0,.06,0,.17-.07.34a2,2,0,0,1-.13.47L667,337Z"/><path class="cls-5" d="M674.35,340.09v-7.3h-2.21a.27.27,0,0,1-.26-.13.76.76,0,0,1-.09-.43v-.33a.76.76,0,0,1,.09-.43.27.27,0,0,1,.26-.13h6.13a.27.27,0,0,1,.26.13.76.76,0,0,1,.09.43v.33a.76.76,0,0,1-.09.43.27.27,0,0,1-.26.13h-2.2v7.3c0,.25-.23.37-.69.37H675C674.58,340.46,674.35,340.34,674.35,340.09Z"/><path class="cls-5" d="M679.75,340.09v-8.4c0-.26.23-.39.7-.39h.33c.45,0,.68.13.68.39v8.4c0,.26-.23.39-.68.39h-.33C680,340.48,679.75,340.35,679.75,340.09Z"/><path class="cls-5" d="M684.16,339.33a6.08,6.08,0,0,1,0-6.89,3.83,3.83,0,0,1,3.05-1.19,3.88,3.88,0,0,1,3,1.18,6.14,6.14,0,0,1,0,6.9,4.48,4.48,0,0,1-6.1,0Zm4.8-1.08a4,4,0,0,0,.6-2.38,3.91,3.91,0,0,0-.6-2.36,2,2,0,0,0-1.75-.81,2.06,2.06,0,0,0-1.76.81,3.91,3.91,0,0,0-.61,2.36,4,4,0,0,0,.61,2.38,2.29,2.29,0,0,0,3.51,0Z"/><path class="cls-5" d="M692.94,340.09v-8.4c0-.25.23-.38.69-.38h.47a1.2,1.2,0,0,1,.46.07.5.5,0,0,1,.28.24l3.33,5.09a6.06,6.06,0,0,1,.45.78l.06,0c0-.2,0-.49,0-.88v-4.9c0-.25.23-.38.69-.38h.28c.46,0,.69.13.69.38v8.4c0,.25-.23.37-.69.37h-.41a1.33,1.33,0,0,1-.44-.06.58.58,0,0,1-.28-.24l-3.4-5.17a5.38,5.38,0,0,1-.46-.77l0,0c0,.2,0,.49,0,.88v5c0,.25-.23.37-.69.37h-.29C693.17,340.46,692.94,340.34,692.94,340.09Z"/><path class="cls-5" d="M624.14,356.32A.49.49,0,0,1,624,356v-8.14a.48.48,0,0,1,.12-.37.46.46,0,0,1,.36-.11h4.55a.3.3,0,0,1,.27.13.88.88,0,0,1,.08.43v.33a.88.88,0,0,1-.08.43.3.3,0,0,1-.27.13h-3.33v2.27h3a.27.27,0,0,1,.26.13.75.75,0,0,1,.09.42V352a.76.76,0,0,1-.09.43.27.27,0,0,1-.26.13h-3V355h3.34a.32.32,0,0,1,.27.13.91.91,0,0,1,.08.43v.34a.91.91,0,0,1-.08.43.32.32,0,0,1-.27.13H624.5A.46.46,0,0,1,624.14,356.32Z"/><path class="cls-5" d="M631.06,356.09v-8.27a.54.54,0,0,1,.11-.37.53.53,0,0,1,.36-.11H634a4,4,0,0,1,2.41.6,2.08,2.08,0,0,1,.79,1.79,2.12,2.12,0,0,1-.41,1.3,2.37,2.37,0,0,1-1.1.82v0a1.26,1.26,0,0,1,.55.46,3.81,3.81,0,0,1,.46.88l1.11,2.76a1.65,1.65,0,0,1,0,.22c0,.16-.23.24-.7.24h-.39c-.38,0-.61-.08-.68-.24l-1-2.55a1.66,1.66,0,0,0-.55-.74,1.81,1.81,0,0,0-1-.21h-.74v3.37c0,.25-.23.37-.69.37h-.33C631.29,356.46,631.06,356.34,631.06,356.09Zm3.11-4.84a1.16,1.16,0,0,0,.86-.38,1.29,1.29,0,0,0,.36-.91,1.05,1.05,0,0,0-.35-.86,1.42,1.42,0,0,0-1-.31h-1.31v2.46Z"/><path class="cls-5" d="M639,356.09v-8.27a.54.54,0,0,1,.11-.37.53.53,0,0,1,.36-.11h2.42a4,4,0,0,1,2.41.6,2.08,2.08,0,0,1,.79,1.79,2.12,2.12,0,0,1-.41,1.3,2.37,2.37,0,0,1-1.1.82v0a1.26,1.26,0,0,1,.55.46,3.81,3.81,0,0,1,.46.88l1.11,2.76a1.65,1.65,0,0,1,0,.22c0,.16-.23.24-.7.24h-.39c-.38,0-.61-.08-.68-.24l-1-2.55a1.66,1.66,0,0,0-.55-.74,1.81,1.81,0,0,0-1-.21h-.74v3.37c0,.25-.23.37-.69.37h-.33C639.22,356.46,639,356.34,639,356.09Zm3.11-4.84a1.16,1.16,0,0,0,.86-.38,1.29,1.29,0,0,0,.36-.91,1.05,1.05,0,0,0-.35-.86,1.42,1.42,0,0,0-1-.31H640.7v2.46Z"/><path class="cls-5" d="M647.6,355.33a6.08,6.08,0,0,1,0-6.89,4.52,4.52,0,0,1,6.1,0,6.14,6.14,0,0,1,0,6.9,4.48,4.48,0,0,1-6.1,0Zm4.8-1.08a4.94,4.94,0,0,0,0-4.74,2,2,0,0,0-1.76-.81,2.07,2.07,0,0,0-1.76.81,3.91,3.91,0,0,0-.6,2.36,4,4,0,0,0,.6,2.38,2.05,2.05,0,0,0,1.76.82A2,2,0,0,0,652.4,354.25Z"/><path class="cls-5" d="M656.43,356.09v-8.27a.5.5,0,0,1,.11-.37.49.49,0,0,1,.35-.11h2.42a3.94,3.94,0,0,1,2.41.6,2.08,2.08,0,0,1,.79,1.79,2.12,2.12,0,0,1-.4,1.3,2.46,2.46,0,0,1-1.11.82v0a1.26,1.26,0,0,1,.55.46,4.24,4.24,0,0,1,.47.88l1.1,2.76a.8.8,0,0,1,0,.22c0,.16-.23.24-.7.24h-.39c-.38,0-.61-.08-.67-.24l-1-2.55a1.59,1.59,0,0,0-.55-.74,1.79,1.79,0,0,0-1-.21h-.74v3.37c0,.25-.23.37-.69.37h-.33C656.66,356.46,656.43,356.34,656.43,356.09Zm3.1-4.84a1.16,1.16,0,0,0,.86-.38,1.3,1.3,0,0,0,.37-.91,1.06,1.06,0,0,0-.36-.86,1.42,1.42,0,0,0-1-.31h-1.31v2.46Z"/><circle class="cls-1" cx="787.43" cy="258.33" r="19.2"/><path class="cls-2" d="M778.87,263.22v-8.4c0-.25.23-.38.69-.38H780a1.23,1.23,0,0,1,.47.07.54.54,0,0,1,.28.24l3.32,5.09a5.14,5.14,0,0,1,.46.78l.05,0c0-.19,0-.49,0-.88v-4.9c0-.25.23-.38.69-.38h.29c.46,0,.69.13.69.38v8.4c0,.25-.23.37-.69.37h-.42a1.27,1.27,0,0,1-.43-.06.61.61,0,0,1-.28-.23L781,258.12a4.5,4.5,0,0,1-.45-.77l0,0c0,.2,0,.49,0,.88v5c0,.25-.23.37-.69.37h-.28C779.1,263.59,778.87,263.47,778.87,263.22Z"/><path class="cls-2" d="M789.19,262.46a6.08,6.08,0,0,1,0-6.89,4.52,4.52,0,0,1,6.1,0,6.14,6.14,0,0,1,0,6.9,4.48,4.48,0,0,1-6.1,0Zm4.8-1.08a3.87,3.87,0,0,0,.61-2.37,4,4,0,0,0-.6-2.37,2,2,0,0,0-1.76-.81,2.07,2.07,0,0,0-1.76.81,5,5,0,0,0,0,4.74,2.05,2.05,0,0,0,1.76.82A2,2,0,0,0,794,261.38Z"/><circle class="cls-1" cx="788.43" cy="61.33" r="19.2"/><path class="cls-2" d="M780.52,66.22V62.1L777.9,58a.59.59,0,0,1-.13-.3c0-.17.25-.25.75-.25h.42c.36,0,.6.08.7.24l1.78,2.92,1.79-2.94a.9.9,0,0,1,.72-.22h.34c.47,0,.71.08.71.25a.65.65,0,0,1-.11.3l-2.64,4.15v4.08c0,.25-.23.37-.69.37h-.33C780.75,66.59,780.52,66.47,780.52,66.22Z"/><path class="cls-2" d="M786.47,66.45a.49.49,0,0,1-.12-.36V58a.48.48,0,0,1,.12-.37.5.5,0,0,1,.36-.11h4.55a.3.3,0,0,1,.27.13.91.91,0,0,1,.08.43v.34a.86.86,0,0,1-.08.42.3.3,0,0,1-.27.13h-3.33v2.27h3a.27.27,0,0,1,.26.13.76.76,0,0,1,.09.43v.33a.76.76,0,0,1-.09.43.27.27,0,0,1-.26.13h-3v2.47h3.34a.32.32,0,0,1,.27.13.91.91,0,0,1,.08.43V66a.91.91,0,0,1-.08.43.32.32,0,0,1-.27.13h-4.56A.46.46,0,0,1,786.47,66.45Z"/><path class="cls-2" d="M794.36,66.48A3.3,3.3,0,0,1,793.3,66c-.21-.16-.32-.31-.32-.44a1.14,1.14,0,0,1,.26-.62c.17-.24.31-.37.43-.37a.87.87,0,0,1,.32.15,6.36,6.36,0,0,0,.79.33,2.84,2.84,0,0,0,.92.13,1.66,1.66,0,0,0,1-.28.94.94,0,0,0,.39-.83.87.87,0,0,0-.2-.6,1.67,1.67,0,0,0-.5-.4,7.79,7.79,0,0,0-.83-.38l-.46-.2a5.75,5.75,0,0,1-1-.55,2.24,2.24,0,0,1-.66-.79,2.68,2.68,0,0,1-.26-1.24,2.36,2.36,0,0,1,.41-1.4,2.44,2.44,0,0,1,1.1-.87,3.9,3.9,0,0,1,1.51-.28,4.72,4.72,0,0,1,1.13.13,2.19,2.19,0,0,1,.84.35.52.52,0,0,1,.27.39,1.23,1.23,0,0,1-.22.6c-.14.25-.27.37-.39.37a.58.58,0,0,1-.2-.06l-.23-.11a2.88,2.88,0,0,0-1.1-.22,1.6,1.6,0,0,0-1,.28.91.91,0,0,0-.34.71,1,1,0,0,0,.2.62,1.37,1.37,0,0,0,.48.38c.19.1.47.22.85.37a9.45,9.45,0,0,1,1.22.58,2.53,2.53,0,0,1,.82.81,2.44,2.44,0,0,1,.35,1.35A2.52,2.52,0,0,1,798,66a3.21,3.21,0,0,1-2.08.68A6.14,6.14,0,0,1,794.36,66.48Z"/></svg>